<?xml version="1.0" encoding="UTF-8" standalone="no"?>
<!-- Created with Inkscape (http://www.inkscape.org/) -->

<svg
   xmlns:dc="http://purl.org/dc/elements/1.1/"
   xmlns:cc="http://creativecommons.org/ns#"
   xmlns:rdf="http://www.w3.org/1999/02/22-rdf-syntax-ns#"
   xmlns:svg="http://www.w3.org/2000/svg"
   xmlns="http://www.w3.org/2000/svg"
   xmlns:sodipodi="http://sodipodi.sourceforge.net/DTD/sodipodi-0.dtd"
   xmlns:inkscape="http://www.inkscape.org/namespaces/inkscape"
   width="128"
   height="128"
   viewBox="0 0 128 128"
   id="svg4501"
   version="1.1"
   inkscape:version="0.91 r13725"
   sodipodi:docname="grundo_herbo.svg"
   inkscape:export-filename="/home/hsn6/mialudo/tileset/grundo_herbo.png"
   inkscape:export-xdpi="90"
   inkscape:export-ydpi="90">
  <defs
     id="defs4503" />
  <sodipodi:namedview
     id="base"
     pagecolor="#ffffff"
     bordercolor="#666666"
     borderopacity="1.0"
     inkscape:pageopacity="0.0"
     inkscape:pageshadow="2"
     inkscape:zoom="0.7"
     inkscape:cx="240.38846"
     inkscape:cy="-62.468822"
     inkscape:document-units="px"
     inkscape:current-layer="layer1"
     showgrid="false"
     units="px"
     inkscape:window-width="1024"
     inkscape:window-height="744"
     inkscape:window-x="0"
     inkscape:window-y="24"
     inkscape:window-maximized="1" />
  <metadata
     id="metadata4506">
    <rdf:RDF>
      <cc:Work
         rdf:about="">
        <dc:format>image/svg+xml</dc:format>
        <dc:type
           rdf:resource="http://purl.org/dc/dcmitype/StillImage" />
        <dc:title></dc:title>
      </cc:Work>
    </rdf:RDF>
  </metadata>
  <g
     inkscape:label="Tavolo 1"
     inkscape:groupmode="layer"
     id="layer1"
     transform="translate(0,-924.36216)">
    <path
       d="m 180.15772,1016.1176 -180.0530036,0 0,37.485 540.3967536,0 0,-37.485 -360.34375,0"
       style="fill:#c49a6c;fill-opacity:1;fill-rule:nonzero;stroke:none"
       id="path16"
       inkscape:connector-curvature="0" />
    <path
       d="m 88.225216,1044.3101 c -2.62,3.7863 -6.96338,5.3213 -9.69913,3.4275 -2.73637,-1.8937 -2.83062,-6.4975 -0.2105,-10.2837 2.62113,-3.7875 6.96338,-5.3213 9.69963,-3.4288 2.73625,1.8938 2.83,6.4988 0.21,10.285"
       style="fill:#a97c50;fill-opacity:1;fill-rule:nonzero;stroke:none"
       id="path18"
       inkscape:connector-curvature="0" />
    <path
       d="m 31.419586,1040.4676 c 2.42775,2.8838 2.57575,6.7538 0.33163,8.6438 -2.24563,1.8887 -6.03275,1.0825 -8.461,-1.8013 -2.42675,-2.885 -2.57525,-6.755 -0.32963,-8.6437 2.24413,-1.89 6.03125,-1.0825 8.459,1.8012"
       style="fill:#a97c50;fill-opacity:1;fill-rule:nonzero;stroke:none"
       id="path20"
       inkscape:connector-curvature="0" />
    <path
       d="m 42.027466,1045.4051 c 1.30475,1.5513 1.38387,3.6288 0.17725,4.645 -1.2055,1.015 -3.24113,0.5825 -4.54588,-0.9675 -1.30412,-1.55 -1.38375,-3.63 -0.17675,-4.6462 1.20613,-1.0138 3.24125,-0.5813 4.54538,0.9687"
       style="fill:#a97c50;fill-opacity:1;fill-rule:nonzero;stroke:none"
       id="path22"
       inkscape:connector-curvature="0" />
    <path
       d="m 72.887836,1046.6176 c -1.00725,1.7575 -2.93212,2.5463 -4.30025,1.7638 -1.36862,-0.785 -1.66062,-2.845 -0.65425,-4.6025 1.00725,-1.7575 2.9325,-2.5475 4.30175,-1.7638 1.36713,0.785 1.66063,2.845 0.65275,4.6025"
       style="fill:#a97c50;fill-opacity:1;fill-rule:nonzero;stroke:none"
       id="path24"
       inkscape:connector-curvature="0" />
    <path
       d="m 123.54772,1050.1026 c -1.0075,1.7575 -2.9325,2.5475 -4.3,1.7638 -1.36875,-0.7838 -1.66125,-2.845 -0.655,-4.6025 1.0075,-1.7575 2.9325,-2.5463 4.30125,-1.7625 1.3675,0.7837 1.66125,2.8437 0.65375,4.6012"
       style="fill:#a97c50;fill-opacity:1;fill-rule:nonzero;stroke:none"
       id="path26"
       inkscape:connector-curvature="0" />
    <path
       d="m 116.96772,1043.7336 c -1.84,2.375 -4.8275,3.1412 -6.6775,1.71 -1.85,-1.4313 -1.8575,-4.5175 -0.02,-6.8925 1.84,-2.375 4.82875,-3.1413 6.67875,-1.71 1.8475,1.4312 1.85875,4.5162 0.0187,6.8925"
       style="fill:#a97c50;fill-opacity:1;fill-rule:nonzero;stroke:none"
       id="path28"
       inkscape:connector-curvature="0"
       sodipodi:nodetypes="ccccc" />
    <path
       d="m 147.76272,1040.0601 c 2.71625,2.3175 3.45625,5.9063 1.65375,8.02 -1.8025,2.115 -5.46375,1.9513 -8.17875,-0.3612 -2.71625,-2.3175 -3.45875,-5.9075 -1.65625,-8.0213 1.80125,-2.1137 5.46375,-1.9537 8.18125,0.3625"
       style="fill:#a97c50;fill-opacity:1;fill-rule:nonzero;stroke:none"
       id="path30"
       inkscape:connector-curvature="0" />
    <path
       d="m 159.96397,1045.0614 c 1.72375,1.47 2.19375,3.7475 1.05,5.0887 -1.14375,1.3425 -3.4675,1.2375 -5.19,-0.23 -1.72375,-1.47 -2.195,-3.7475 -1.05,-5.0887 1.1425,-1.3413 3.46625,-1.24 5.19,0.23"
       style="fill:#a97c50;fill-opacity:1;fill-rule:nonzero;stroke:none"
       id="path32"
       inkscape:connector-curvature="0" />
    <path
       d="m 180.15772,1021.8426 0.015,0 -0.015,-0.2337 0,0.2337"
       style="fill:#8dc63f;fill-opacity:1;fill-rule:nonzero;stroke:none"
       id="path34"
       inkscape:connector-curvature="0" />
    <path
       d="m 268.39647,1044.3101 c -2.62,3.7863 -6.96125,5.3213 -9.69875,3.4275 -2.73625,-1.8937 -2.82875,-6.4975 -0.20875,-10.2837 2.62,-3.7875 6.9625,-5.3213 9.69875,-3.4288 2.73625,1.8938 2.83,6.4988 0.20875,10.285"
       style="fill:#a97c50;fill-opacity:1;fill-rule:nonzero;stroke:none"
       id="path36"
       inkscape:connector-curvature="0" />
    <path
       d="m 211.59272,1040.4676 c 2.4275,2.8838 2.575,6.7538 0.33,8.6438 -2.245,1.8887 -6.0325,1.0825 -8.46,-1.8013 -2.4275,-2.885 -2.575,-6.755 -0.32875,-8.6437 2.24375,-1.89 6.03,-1.0825 8.45875,1.8012"
       style="fill:#a97c50;fill-opacity:1;fill-rule:nonzero;stroke:none"
       id="path38"
       inkscape:connector-curvature="0" />
    <path
       d="m 222.20022,1045.4051 c 1.30375,1.5513 1.38375,3.6288 0.1775,4.645 -1.20625,1.015 -3.24125,0.5825 -4.54625,-0.9675 -1.30375,-1.55 -1.38375,-3.63 -0.1775,-4.6462 1.2075,-1.0138 3.24125,-0.5813 4.54625,0.9687"
       style="fill:#a97c50;fill-opacity:1;fill-rule:nonzero;stroke:none"
       id="path40"
       inkscape:connector-curvature="0" />
    <path
       d="m 253.06022,1046.6176 c -1.0075,1.7575 -2.93125,2.5463 -4.30125,1.7638 -1.3675,-0.785 -1.66,-2.845 -0.6525,-4.6025 1.0075,-1.7575 2.9325,-2.5475 4.3,-1.7638 1.36875,0.785 1.6625,2.845 0.65375,4.6025"
       style="fill:#a97c50;fill-opacity:1;fill-rule:nonzero;stroke:none"
       id="path42"
       inkscape:connector-curvature="0" />
    <path
       d="m 303.72022,1050.1026 c -1.0075,1.7575 -2.93125,2.5475 -4.30125,1.7638 -1.3675,-0.7838 -1.66,-2.845 -0.65375,-4.6025 1.00875,-1.7575 2.9325,-2.5463 4.30125,-1.7625 1.36875,0.7837 1.66125,2.8437 0.65375,4.6012"
       style="fill:#a97c50;fill-opacity:1;fill-rule:nonzero;stroke:none"
       id="path44"
       inkscape:connector-curvature="0" />
    <path
       d="m 301.51522,1040.8764 c -1.84,2.375 -4.8275,3.1412 -6.6775,1.71 -1.84875,-1.4313 -1.8575,-4.5175 -0.02,-6.8925 1.84,-2.375 4.83,-3.1413 6.6775,-1.71 1.85,1.4312 1.85875,4.5162 0.02,6.8925"
       style="fill:#a97c50;fill-opacity:1;fill-rule:nonzero;stroke:none"
       id="path46"
       inkscape:connector-curvature="0" />
    <path
       d="m 327.93647,1040.0601 c 2.715,2.3175 3.45375,5.9063 1.65375,8.02 -1.8025,2.115 -5.465,1.9513 -8.18,-0.3612 -2.7175,-2.3175 -3.45875,-5.9075 -1.65625,-8.0213 1.8,-2.1137 5.46375,-1.9537 8.1825,0.3625"
       style="fill:#a97c50;fill-opacity:1;fill-rule:nonzero;stroke:none"
       id="path48"
       inkscape:connector-curvature="0" />
    <path
       d="m 340.13772,1045.0614 c 1.72125,1.47 2.19125,3.7475 1.0475,5.0887 -1.1425,1.3425 -3.46625,1.2375 -5.18875,-0.23 -1.72375,-1.47 -2.195,-3.7475 -1.05,-5.0887 1.14125,-1.3413 3.4675,-1.24 5.19125,0.23"
       style="fill:#a97c50;fill-opacity:1;fill-rule:nonzero;stroke:none"
       id="path50"
       inkscape:connector-curvature="0" />
    <path
       d="m 360.33022,1021.8426 0.015,0 -0.015,-0.2337 0,0.2337"
       style="fill:#8dc63f;fill-opacity:1;fill-rule:nonzero;stroke:none"
       id="path52"
       inkscape:connector-curvature="0" />
    <path
       d="m 360.33022,1016.1176 -360.2255036,0 0,27.2513 c 1.26362,0.1025 2.643,0.5175 3.97987,0.5187 3.963,0.01 8.3052496,-0.1525 11.8247496,-2.1912 3.88775,-2.2513 4.26325,-7.0275 9.55125,-6.7963 3.61375,0.1575 6.3745,2.8938 9.70025,3.9488 4.064,1.2887 8.26225,1.5425 11.76413,-0.6638 2.97612,-1.875 4.58837,-5.3262 8.35012,-5.9637 3.3745,-0.5725 4.47263,4.3237 8.28325,4.4662 7.82025,0.305 11.38525,-3.0637 13.65963,-4.1825 5.13225,-2.5237 9.4735,-3.6275 14.141,-1.775 5.96,2.365 0.79625,11.7125 7.00875,11.0463 8.350004,-0.895 11.582144,-8.7067 17.985894,-8.963 7.455,-0.2975 1.56538,9.7946 6.79413,11.2771 12.12286,1.7684 16.56373,-10.6804 21.56123,-9.1154 4.07,1.275 7.32,5.5 11.87625,5.5475 2.5525,0.027 3.215,-2.3112 12.0525,-1.465 3.93625,0.4475 2.945,4.1863 11.52,4.5225 1.2625,0.1025 2.7625,0.3063 4.1,0.3075 3.9625,0.01 8.30375,-0.1525 11.82375,-2.1912 3.88875,-2.2513 4.26375,-7.0275 9.5525,-6.7963 3.61375,0.1575 6.37375,2.8938 9.69875,3.9488 4.065,1.2887 8.2625,1.5425 11.76375,-0.6638 2.9775,-1.875 4.58875,-5.3262 8.35125,-5.9637 3.37375,-0.5725 4.4725,4.3237 8.28375,4.4662 7.81875,0.305 11.385,-3.0637 13.65875,-4.1825 5.13125,-2.5237 9.47375,-3.6275 14.14125,-1.775 5.95875,2.365 0.795,11.7125 7.0075,11.0463 8.35,-0.895 13.72625,-10.4925 20.13,-10.7488 7.455,-0.2975 9.6825,3.29 14.91,4.7725 4.98125,1.4113 6.305,-2.39 11.30125,-0.825 4.07125,1.275 7.32125,5.5 11.8775,5.5475 2.55125,0.027 3.21375,-2.3112 12.05375,-1.465 3.93375,0.4475 2.94375,4.1863 11.51875,4.5225 l 0,-0.1175 c 1.38,0.1775 3.13625,0.425 4.1,0.425 3.9625,0.01 8.305,-0.1525 11.82375,-2.1912 3.8875,-2.2513 4.26375,-7.0275 9.5525,-6.7963 3.6125,0.1575 6.37375,2.8938 9.69875,3.9488 4.06375,1.2887 8.2625,1.5425 11.765,-0.6638 2.975,-1.875 4.5875,-5.3262 8.34875,-5.9637 3.375,-0.5725 4.47375,4.3237 8.28375,4.4662 7.82125,0.305 11.3875,-3.0637 13.66,-4.1825 5.13125,-2.5237 9.47375,-3.6275 14.14125,-1.775 5.96,2.365 0.79625,11.7125 7.0075,11.0463 8.35,-0.895 13.72625,-10.4925 20.12875,-10.7488 7.455,-0.2975 9.68375,3.29 14.91125,4.7725 4.98125,1.4113 6.30375,-2.39 11.30125,-0.825 4.07125,1.275 7.32125,5.5 11.8775,5.5475 2.55125,0.027 3.2125,-2.3112 12.0525,-1.465 3.935,0.4475 2.945,4.1863 11.51875,4.5225 l 0,-27.4625 -180.17125,0"
       style="fill:#a97c50;fill-opacity:1;fill-rule:nonzero;stroke:none"
       id="path54"
       inkscape:connector-curvature="0"
       sodipodi:nodetypes="cccccccccccccccccccccccccccscccccccccccccccccccccccccc"
       inkscape:export-xdpi="90"
       inkscape:export-ydpi="90" />
    <path
       d="m 0.1047164,1024.1701 540.3975036,0 0,-8.0527 -540.3975036,0 0,8.0527 z"
       style="fill:#7e4a36;fill-opacity:1;fill-rule:nonzero;stroke:none"
       id="path56"
       inkscape:connector-curvature="0" />
    <path
       d="m 448.57022,1044.3101 c -2.62125,3.7863 -6.9625,5.3213 -9.7,3.4275 -2.73625,-1.8937 -2.83,-6.4975 -0.21,-10.2837 2.62125,-3.7875 6.96375,-5.3213 9.7,-3.4288 2.73625,1.8938 2.83,6.4988 0.21,10.285"
       style="fill:#a97c50;fill-opacity:1;fill-rule:nonzero;stroke:none"
       id="path58"
       inkscape:connector-curvature="0" />
    <path
       d="m 391.76397,1040.4676 c 2.42875,2.8838 2.57625,6.7538 0.33125,8.6438 -2.245,1.8887 -6.0325,1.0825 -8.46125,-1.8013 -2.42625,-2.885 -2.57375,-6.755 -0.3275,-8.6437 2.24375,-1.89 6.03125,-1.0825 8.4575,1.8012"
       style="fill:#a97c50;fill-opacity:1;fill-rule:nonzero;stroke:none"
       id="path60"
       inkscape:connector-curvature="0" />
    <path
       d="m 402.37272,1045.4051 c 1.305,1.5513 1.38375,3.6288 0.1775,4.645 -1.2075,1.015 -3.2425,0.5825 -4.54625,-0.9675 -1.3025,-1.55 -1.38375,-3.63 -0.1775,-4.6462 1.20625,-1.0138 3.2425,-0.5813 4.54625,0.9687"
       style="fill:#a97c50;fill-opacity:1;fill-rule:nonzero;stroke:none"
       id="path62"
       inkscape:connector-curvature="0" />
    <path
       d="m 433.23272,1046.6176 c -1.0075,1.7575 -2.9325,2.5463 -4.3,1.7638 -1.36875,-0.785 -1.66,-2.845 -0.65375,-4.6025 1.00625,-1.7575 2.9325,-2.5475 4.30125,-1.7638 1.36625,0.785 1.66125,2.845 0.6525,4.6025"
       style="fill:#a97c50;fill-opacity:1;fill-rule:nonzero;stroke:none"
       id="path64"
       inkscape:connector-curvature="0" />
    <path
       d="m 483.89147,1050.1026 c -1.00625,1.7575 -2.93,2.5475 -4.30125,1.7638 -1.3675,-0.7838 -1.65875,-2.845 -0.65125,-4.6025 1.005,-1.7575 2.93,-2.5463 4.3,-1.7625 1.36875,0.7837 1.66125,2.8437 0.6525,4.6012"
       style="fill:#a97c50;fill-opacity:1;fill-rule:nonzero;stroke:none"
       id="path66"
       inkscape:connector-curvature="0" />
    <path
       d="m 481.68772,1040.8764 c -1.84125,2.375 -4.8275,3.1412 -6.6775,1.71 -1.85,-1.4313 -1.85625,-4.5175 -0.0213,-6.8925 1.84125,-2.375 4.83,-3.1413 6.68,-1.71 1.8475,1.4312 1.85625,4.5162 0.0188,6.8925"
       style="fill:#a97c50;fill-opacity:1;fill-rule:nonzero;stroke:none"
       id="path68"
       inkscape:connector-curvature="0" />
    <path
       d="m 508.10772,1040.0601 c 2.71625,2.3175 3.455,5.9063 1.655,8.02 -1.805,2.115 -5.46375,1.9513 -8.18,-0.3612 -2.7175,-2.3175 -3.45875,-5.9075 -1.6575,-8.0213 1.80125,-2.1137 5.46625,-1.9537 8.1825,0.3625"
       style="fill:#a97c50;fill-opacity:1;fill-rule:nonzero;stroke:none"
       id="path70"
       inkscape:connector-curvature="0" />
    <path
       d="m 520.30897,1045.0614 c 1.72375,1.47 2.1925,3.7475 1.04875,5.0887 -1.1425,1.3425 -3.46625,1.2375 -5.18875,-0.23 -1.72375,-1.47 -2.195,-3.7475 -1.05125,-5.0887 1.1425,-1.3413 3.46625,-1.24 5.19125,0.23"
       style="fill:#a97c50;fill-opacity:1;fill-rule:nonzero;stroke:none"
       id="path72"
       inkscape:connector-curvature="0" />
    <path
       d="m 540.50147,1021.8426 0.0163,0 -0.0163,-0.2337 0,0.2337"
       style="fill:#8dc63f;fill-opacity:1;fill-rule:nonzero;stroke:none"
       id="path74"
       inkscape:connector-curvature="0" />
    <path
       d="m 536.09772,1007.9401 c 0.895,-10.44999 -6.2625,-25.60124 -6.2625,-25.60124 2.9825,12.01625 0,25.86254 0,25.86254 -2.385,-5.225 -3.87625,-15.15129 -3.87625,-15.15129 -3.28,6.53 -3.975,17.24129 -3.975,17.24129 l -3.74625,-9.6663 -1.52375,9.1438 c -3.87625,-6.3488 -2.22,-28.99879 -2.22,-28.99879 -5.205,8.62125 -7.32375,26.12499 -7.32375,26.12499 -1.1925,-9.22249 -8.22875,-17.76499 -8.22875,-17.76499 3.4,12.01749 1.9675,20.37749 1.9675,20.37749 l -3.8775,-8.8825 -3.28,9.1438 -3.28125,-9.1438 -4.4725,10.9713 c 0.5975,-21.15879 -7.65875,-31.60879 -7.65875,-31.60879 4.86625,13.0625 -1.2875,28.21379 -1.2875,28.21379 0.59625,-6.27 -3.43375,-13.15254 -3.43375,-13.15254 -0.15375,6.70124 -4.61875,12.10754 -4.61875,12.10754 -3.28,-10.71129 0,-22.20504 0,-22.20504 -8.05125,6.79125 -9.5425,22.20504 -9.5425,22.20504 -1.49,-10.97254 2.68375,-27.69129 2.68375,-27.69129 -7.15625,6.27 -11.665,31.34879 -11.665,31.34879 l -2.94625,-10.97254 -3.9125,7.83754 c 0.55875,-15.49254 -6.8625,-23.51129 -6.8625,-23.51129 4.735,13.845 -2.92,25.07879 -2.92,25.07879 -4.75125,-4.7025 -4.49625,-16.19629 -4.49625,-16.19629 -6.2625,5.485 -5.07,16.71879 -5.07,16.71879 l -4.4725,-10.71129 -4.47375,10.44999 c -0.5975,-10.44999 4.47375,-26.90749 4.47375,-26.90749 -7.1575,5.485 -12.525,27.69129 -12.525,27.69129 0,-14.10754 -7.08125,-24.81754 -7.08125,-24.81754 3.2175,14.89004 0,22.72754 0,22.72754 l -1.26875,-6.7925 -3.8775,5.4862 -1.35625,-9.14374 c -2.54875,3.39624 -5.98625,9.66624 -5.98625,9.66624 -2.87,-9.92749 3.46625,-26.90749 3.46625,-26.90749 -10.43875,7.31375 -10.73625,29.51999 -10.73625,29.51999 0,-4.9637 -2.685,-14.98124 -2.685,-14.98124 0,5.65624 -3.28,11.06254 -3.28,11.06254 -2.68375,-6.27004 -2.68375,-17.24254 -2.68375,-17.24254 -4.175,6.7925 -3.5775,19.33254 -3.5775,19.33254 -3.28125,-11.49504 -3.28125,-34.22254 -3.28125,-34.22254 -2.70375,6.11125 -3.84625,15.99 -4.3,24.64875 l 0,-0.01 -4.6975,9.32249 c 0.895,-10.44999 -6.26125,-25.60124 -6.26125,-25.60124 2.98125,12.01625 0,25.86254 0,25.86254 -2.38625,-5.225 -3.8775,-15.15129 -3.8775,-15.15129 -3.28,6.53 -3.97625,17.24129 -3.97625,17.24129 l -3.745,-9.6663 -1.5225,9.1438 c -3.8775,-6.3488 -2.2225,-28.99879 -2.2225,-28.99879 -5.20375,8.62125 -7.32125,26.12499 -7.32125,26.12499 -1.1925,-9.22249 -8.23,-17.76499 -8.23,-17.76499 3.40125,12.01749 1.9675,20.37749 1.9675,20.37749 l -3.8775,-8.8825 -3.28,9.1438 -3.28,-9.1438 -4.47375,10.9713 c 0.5975,-21.15879 -7.65875,-31.60879 -7.65875,-31.60879 4.86625,13.0625 -1.2875,28.21379 -1.2875,28.21379 0.5975,-6.27 -3.43375,-13.15254 -3.43375,-13.15254 -0.15375,6.70124 -4.6175,12.10754 -4.6175,12.10754 -3.28,-10.71129 0,-22.20504 0,-22.20504 -8.0525,6.79125 -9.5425,22.20504 -9.5425,22.20504 -1.49125,-10.97254 2.6825,-27.69129 2.6825,-27.69129 -7.15625,6.27 -11.665,31.34879 -11.665,31.34879 l -2.94625,-10.97254 -3.91375,7.83754 c 0.56,-15.49254 -6.86,-23.51129 -6.86,-23.51129 4.73375,13.845 -2.9225,25.07879 -2.9225,25.07879 -4.75,-4.7025 -4.495,-16.19629 -4.495,-16.19629 -6.2625,5.485 -5.07,16.71879 -5.07,16.71879 l -4.47375,-10.71129 -4.4725,10.44999 c -0.59625,-10.44999 4.4725,-26.90749 4.4725,-26.90749 -7.15625,5.485 -12.525,27.69129 -12.525,27.69129 0,-14.10754 -7.08125,-24.81754 -7.08125,-24.81754 3.2175,14.89004 0,22.72754 0,22.72754 l -1.2675,-6.7925 -3.8775,5.4862 -1.35625,-9.14374 c -2.54875,3.39624 -5.98625,9.66624 -5.98625,9.66624 -2.86875,-9.92749 3.46625,-26.90749 3.46625,-26.90749 -10.4375,7.31375 -10.73625,29.51999 -10.73625,29.51999 0,-4.9637 -2.68375,-14.98124 -2.68375,-14.98124 0,5.65624 -3.28,11.06254 -3.28,11.06254 -2.685,-6.27004 -2.685,-17.24254 -2.685,-17.24254 -4.175,6.7925 -3.57875,19.33254 -3.57875,19.33254 -3.28,-11.49504 -3.28,-34.22254 -3.28,-34.22254 -2.815,6.36 -3.93625,16.8025 -4.3525,25.7 l 0,-0.0125 -4.64375,8.27374 c 0.895,-10.44999 -6.2625,-25.60124 -6.2625,-25.60124 2.9825,12.01625 0,25.86254 0,25.86254 -2.385,-5.225 -3.87625,-15.15129 -3.87625,-15.15129 -3.28125,6.53 -3.97625,17.24129 -3.97625,17.24129 l -3.745,-9.6663 -1.52375,9.1438 c -3.87625,-6.3488 -2.22125,-28.99879 -2.22125,-28.99879 -5.205,8.62125 -7.32125,26.12499 -7.32125,26.12499 -1.19375,-9.22249 -8.23125,-17.76499 -8.23125,-17.76499 3.4,12.01749 1.96875,20.37749 1.96875,20.37749 l -3.8775,-8.8825 -3.28,9.1438 -3.28,-9.1438 -4.47375,10.9713 c 0.59625,-21.15879 -7.66,-31.60879 -7.66,-31.60879 4.865,13.0625 -1.28625,28.21379 -1.28625,28.21379 0.59625,-6.27 -3.435,-13.15254 -3.435,-13.15254 -0.155,6.70124 -4.6175,12.10754 -4.6175,12.10754 -3.28,-10.71129 0,-22.20504 0,-22.20504 -8.05125,6.79125 -9.542504,22.20504 -9.542504,22.20504 -1.49125,-10.97254 2.683754,-27.69129 2.683754,-27.69129 -7.157504,6.27 -11.666254,31.34879 -11.666254,31.34879 l -2.94625,-10.97254 -3.91375,7.83754 c 0.56,-15.49254 -6.85988,-23.51129 -6.85988,-23.51129 4.73388,13.845 -2.92287,25.07879 -2.92287,25.07879 -4.75,-4.7025 -4.49463,-16.19629 -4.49463,-16.19629 -6.26262,5.485 -5.06975,16.71879 -5.06975,16.71879 l -4.47325,-10.71129 -4.47312,10.44999 c -0.59613,-10.44999 4.47312,-26.90749 4.47312,-26.90749 -7.15712,5.485 -12.52487,27.69129 -12.52487,27.69129 0,-14.10754 -7.082,-24.81754 -7.082,-24.81754 3.21725,14.89004 0,22.72754 0,22.72754 l -1.26863,-6.7925 -3.87637,5.4862 -1.356,-9.14374 c -2.54888,3.39624 -5.98675,9.66624 -5.98675,9.66624 -2.86875,-9.92749 3.46525,-26.90749 3.46525,-26.90749 -10.437,7.31375 -10.73538,29.51999 -10.73538,29.51999 0,-4.9637 -2.6835,-14.98124 -2.6835,-14.98124 0,5.65624 -3.28075,11.06254 -3.28075,11.06254 -2.68362,-6.27004 -2.68362,-17.24254 -2.68362,-17.24254 -4.1753796,6.7925 -3.5791296,19.33254 -3.5791296,19.33254 -3.27975,-11.49504 -3.27975,-34.22254 -3.27975,-34.22254 -5.6665,12.8 -4.47362,42.13874 -4.47362,42.13874 l 540.3967536,0 0,-16.79874 -4.40375,8.62124"
       style="fill:#8dc63f;fill-opacity:1;fill-rule:nonzero;stroke:none"
       id="path76"
       inkscape:connector-curvature="0" />
  </g>
</svg>
