<?xml version="1.0" encoding="UTF-8" standalone="no"?>
<!-- Created with Inkscape (http://www.inkscape.org/) -->

<svg
   xmlns:dc="http://purl.org/dc/elements/1.1/"
   xmlns:cc="http://creativecommons.org/ns#"
   xmlns:rdf="http://www.w3.org/1999/02/22-rdf-syntax-ns#"
   xmlns:svg="http://www.w3.org/2000/svg"
   xmlns="http://www.w3.org/2000/svg"
   xmlns:sodipodi="http://sodipodi.sourceforge.net/DTD/sodipodi-0.dtd"
   xmlns:inkscape="http://www.inkscape.org/namespaces/inkscape"
   width="128"
   height="128"
   viewBox="0 0 128 128"
   id="svg4331"
   version="1.1"
   inkscape:version="0.91 r13725"
   sodipodi:docname="arbo.svg"
   inkscape:export-filename="/home/hsn6/mialudo/tileset/arbo.png"
   inkscape:export-xdpi="90"
   inkscape:export-ydpi="90">
  <defs
     id="defs4333" />
  <sodipodi:namedview
     id="base"
     pagecolor="#ffffff"
     bordercolor="#666666"
     borderopacity="1.0"
     inkscape:pageopacity="0.0"
     inkscape:pageshadow="2"
     inkscape:zoom="1.979899"
     inkscape:cx="97.644141"
     inkscape:cy="3.3110717"
     inkscape:document-units="px"
     inkscape:current-layer="layer1"
     showgrid="false"
     units="px"
     inkscape:window-width="1024"
     inkscape:window-height="744"
     inkscape:window-x="0"
     inkscape:window-y="24"
     inkscape:window-maximized="1" />
  <metadata
     id="metadata4336">
    <rdf:RDF>
      <cc:Work
         rdf:about="">
        <dc:format>image/svg+xml</dc:format>
        <dc:type
           rdf:resource="http://purl.org/dc/dcmitype/StillImage" />
        <dc:title></dc:title>
      </cc:Work>
    </rdf:RDF>
  </metadata>
  <g
     inkscape:label="Tavolo 1"
     inkscape:groupmode="layer"
     id="layer1"
     transform="translate(0,-924.36216)">
    <path
       d="m 152.18519,1042.7242 c -0.0622,0.5057 -0.22323,1.4057 -0.54125,1.7584 -0.22619,0.251 -0.53182,0.2254 -0.93736,-0.4155 -0.47177,-0.7456 -0.10636,-1.9657 0.0313,-2.7256 0.12306,-0.6775 0.2892,-1.3497 0.48793,-1.969 0.2103,-0.6139 0.42923,-1.1846 0.66188,-1.6518 0.0566,-0.1179 0.11068,-0.231 0.16239,-0.3384 0.045,-0.084 0.0867,-0.1608 0.12817,-0.237 0.0196,0.1688 0.0388,0.3388 0.0565,0.5122 0.074,0.8229 0.11202,1.6954 0.10718,2.5587 -0.0143,0.8649 -0.0673,1.7188 -0.15672,2.508 z m -16.84899,1.8292 c -0.0245,0.044 -0.049,0.088 -0.0735,0.1317 l -0.72462,0 c 0.0786,-0.7109 0.213,-1.6084 0.39772,-2.5035 0.0646,-0.3123 0.13544,-0.6231 0.20922,-0.9258 0.10341,0.5979 0.17369,1.187 0.20331,1.7401 0.0229,0.5704 0.0202,1.0941 -0.0121,1.5575 z m -3.44083,-0.3293 c -0.24424,0.4659 -0.43354,0.5496 -0.57895,0.4273 -0.33417,-0.2816 -0.43514,-1.6544 -0.43218,-1.9816 0.0146,-0.548 0.0606,-1.0975 0.13517,-1.6105 0.0837,-0.5103 0.17799,-0.988 0.29351,-1.3881 0.0512,-0.2026 0.10798,-0.3849 0.16184,-0.5456 0.0256,-0.082 0.0498,-0.1583 0.0738,-0.2284 0.004,0.016 0.008,0.032 0.011,0.048 0.11821,0.5049 0.21514,1.1011 0.29512,1.7291 0.0716,0.6317 0.11283,1.3 0.11714,1.9587 -0.003,0.5463 -0.0296,1.0827 -0.0765,1.5906 z m -7.39599,0.4553 c -7.1e-4,0 -0.002,0 -0.003,0.01 l -0.50381,0 c 0.17556,-0.8916 0.36217,-1.9563 0.52698,-3.0623 0.0818,0.4538 0.15429,0.915 0.20599,1.3766 0.0162,0.1516 0.0304,0.3029 0.0434,0.4534 0.0361,0.4266 -0.0638,0.8515 -0.26955,1.2266 z m -3.24748,-0.811 c -0.0264,0.2841 -0.0595,0.5469 -0.0983,0.7898 -0.0124,0.01 -0.0199,0.017 -0.0323,0.027 -0.3032,0 -0.53398,-0.2696 -0.49008,-0.5695 0.0164,-0.1118 0.0323,-0.2249 0.0479,-0.3396 0.0848,-0.685 0.14056,-1.4175 0.16291,-2.1491 0.0124,-0.6396 -0.003,-1.2753 -0.0393,-1.8801 0.1166,0.371 0.21945,0.8116 0.30751,1.2731 0.0824,0.4675 0.13976,0.9614 0.1656,1.4463 0.0202,0.4879 0.0119,0.9648 -0.024,1.4021 z m -24.720495,0.3288 c -0.003,0.179 -0.006,0.3425 -0.009,0.4879 -0.37618,0 -0.70093,-0.2601 -0.78387,-0.6271 -0.009,-0.038 -0.0175,-0.077 -0.0264,-0.115 0.19792,-0.7416 0.35922,-1.5233 0.47016,-2.3126 0.0916,-0.7459 0.13895,-1.4931 0.14487,-2.2127 0.063,0.6355 0.12333,1.3704 0.15565,2.0999 0.0485,0.9828 0.0595,1.9552 0.0485,2.6796 z m -3.12147,-0.4015 c -0.038,0.063 -0.0759,0.1252 -0.1139,0.1866 -0.0296,-0.1298 -0.0619,-0.2588 -0.0983,-0.3861 -0.2919,-1.0066 -0.75398,-1.8557 -1.12396,-2.4833 0.1411,-0.9371 0.18903,-1.8586 0.18526,-2.7181 0.0339,0.071 0.0676,0.1429 0.10313,0.2173 0.22431,0.4569 0.42842,1.013 0.61045,1.5984 0.17099,0.5933 0.30186,1.2263 0.37915,1.8515 0.0643,0.6006 0.0827,1.1892 0.0582,1.7337 z m -1.80066,0.1414 c -0.0361,0.2611 -0.0918,0.5118 -0.16103,0.748 l -0.44269,0 c 0.0447,-0.095 0.0889,-0.1896 0.13114,-0.2865 0.20465,-0.4618 0.37726,-0.9495 0.53047,-1.4482 0.002,0.3293 -0.0132,0.663 -0.0579,0.9867 z m -8.47713,-2.8606 c -0.14245,0.7316 -0.24397,1.4848 -0.29109,2.2041 -0.008,0.1359 -0.0138,0.2709 -0.0183,0.4039 -0.0202,0.5574 -0.47285,1.0006 -1.03052,1.0006 0.0732,-0.503 0.17718,-1.0232 0.31101,-1.54 0.18257,-0.65 0.41011,-1.2901 0.667,-1.8744 0.1955,-0.4199 0.39396,-0.8152 0.59511,-1.1655 -0.0854,0.317 -0.16426,0.6412 -0.2332,0.9713 z m -6.13738,1.5352 c -3.6e-4,0 -0.001,0 -0.001,0.01 -0.0695,-0.4018 -0.12979,-0.8151 -0.17638,-1.2327 -0.0649,-0.663 -0.098,-1.3314 -0.0978,-1.9599 0.004,-0.259 0.011,-0.5092 0.0215,-0.7518 0.039,0.056 0.0784,0.1118 0.11929,0.1689 0.32233,0.4362 0.63523,0.9623 0.93439,1.5303 -0.30078,0.7451 -0.57464,1.5058 -0.79948,2.2395 z m -3.12066,0.1125 c -0.0337,0.2723 -0.0692,0.5359 -0.10691,0.7896 -0.10017,0.6745 -0.68181,1.1713 -1.36362,1.1713 -0.0482,-0.3234 -0.10582,-0.6651 -0.1718,-1.0219 -2.1e-4,-0.1048 -0.001,-0.209 0,-0.3164 0.0189,-0.6401 0.0848,-1.3238 0.19496,-2.0043 0.12279,-0.6777 0.28921,-1.3504 0.48793,-1.97 0.21031,-0.6139 0.42923,-1.1846 0.66189,-1.6518 0.0566,-0.1179 0.11067,-0.231 0.16237,-0.3384 0.045,-0.084 0.0867,-0.1608 0.12818,-0.237 0.0197,0.1688 0.0388,0.3388 0.0568,0.5122 0.0738,0.8229 0.11175,1.6954 0.10691,2.5587 -0.0143,0.8649 -0.0673,1.7188 -0.15672,2.508 z m -18.106505,0.939 c -0.06597,0.3568 -0.123599,0.6985 -0.1718,1.0219 -0.681811,0 -1.263451,-0.4968 -1.363623,-1.1713 -0.0377,-0.2537 -0.07324,-0.5173 -0.106903,-0.7896 -0.0894,-0.7892 -0.142448,-1.6431 -0.156719,-2.508 -0.0048,-0.8633 0.03312,-1.7358 0.107172,-2.5587 0.01777,-0.1734 0.03689,-0.3434 0.05655,-0.5122 0.04147,0.076 0.08321,0.1535 0.128176,0.237 0.0517,0.1074 0.105826,0.2205 0.162374,0.3384 0.232656,0.4672 0.451579,1.0379 0.661885,1.6518 0.198727,0.6196 0.365141,1.2923 0.487931,1.97 0.110135,0.6805 0.176108,1.3642 0.194958,2.0043 0.0011,0.1074 2.15e-4,0.2116 0,0.3164 z m -4.584993,-2.2787 c -0.04659,0.4177 -0.106903,0.8311 -0.176377,1.2328 -4.3e-4,0 -0.0011,0 -0.0015,-0.01 -0.224848,-0.7338 -0.498703,-1.4945 -0.799486,-2.2396 0.299168,-0.5679 0.612068,-1.0941 0.934394,-1.5303 0.04093,-0.057 0.08024,-0.1131 0.11929,-0.1688 0.01049,0.2426 0.01777,0.4928 0.02181,0.7518 0,0.6285 -0.03312,1.2969 -0.09802,1.9598 z m -6.005971,2.3 c -0.0046,-0.133 -0.01077,-0.268 -0.01831,-0.4039 -0.04712,-0.7193 -0.148642,-1.4725 -0.29109,-2.2041 -0.06893,-0.3301 -0.147833,-0.6543 -0.233194,-0.9713 0.20115,0.3503 0.399608,0.7456 0.595104,1.1655 0.256891,0.5843 0.48443,1.2244 0.667001,1.8744 0.133831,0.5168 0.237772,1.037 0.311016,1.54 -0.557675,0 -1.010331,-0.4432 -1.030526,-1.0006 z m -8.625506,1.0006 c -0.0692,-0.2362 -0.124944,-0.4869 -0.161028,-0.748 -0.0447,-0.3237 -0.05978,-0.6574 -0.05789,-0.9867 0.153219,0.4987 0.325826,0.9864 0.530477,1.4482 0.04228,0.097 0.08644,0.1917 0.131138,0.2865 l -0.442693,0 z m -1.749497,-1.0889 c -0.03635,0.1273 -0.06867,0.2563 -0.09829,0.3861 -0.03797,-0.061 -0.07594,-0.1236 -0.113904,-0.1866 -0.02451,-0.5445 -0.0062,-1.1331 0.05816,-1.7337 0.07728,-0.6252 0.208152,-1.2582 0.379143,-1.8515 0.182032,-0.5854 0.386144,-1.1415 0.610453,-1.5984 0.03554,-0.074 0.0692,-0.1465 0.103133,-0.2173 -0.0038,0.8595 0.04416,1.781 0.185263,2.7181 -0.369988,0.6276 -0.832068,1.4767 -1.123965,2.4833 z m -2.540905,0.4618 c -0.08267,0.367 -0.407687,0.6271 -0.783868,0.6271 -0.0032,-0.1454 -0.0065,-0.3089 -0.0089,-0.4879 -0.01105,-0.7244 0,-1.6968 0.04847,-2.6796 0.03231,-0.7295 0.09263,-1.4644 0.155643,-2.0999 0.0059,0.7196 0.05332,1.4668 0.144871,2.2127 0.110942,0.7893 0.27224,1.571 0.470159,2.3126 -0.0089,0.038 -0.01777,0.077 -0.02639,0.115 z m -25.382661,0.6271 c -0.01239,-0.01 -0.01992,-0.016 -0.03231,-0.027 -0.03878,-0.2429 -0.0719,-0.5057 -0.09829,-0.7898 -0.03581,-0.4373 -0.04416,-0.9142 -0.02396,-1.4021 0.02585,-0.485 0.08321,-0.9788 0.165605,-1.4463 0.08805,-0.4616 0.190918,-0.9021 0.307515,-1.2731 -0.03689,0.6047 -0.0517,1.2405 -0.03931,1.8801 0.02235,0.7316 0.07809,1.464 0.162913,2.1491 0.01562,0.1147 0.03151,0.2278 0.04793,0.3395 0.04416,0.3 -0.186879,0.5695 -0.490085,0.5695 z m -3.375128,0 c -0.0011,0 -0.0022,0 -0.0029,-0.01 -0.205728,-0.3751 -0.305631,-0.8001 -0.269547,-1.2266 0.01293,-0.1505 0.0272,-0.3018 0.04335,-0.4535 0.0517,-0.4615 0.124137,-0.9228 0.205998,-1.3765 0.164798,1.1059 0.351407,2.1706 0.526976,3.0622 l -0.503818,0 z m -6.819998,-0.034 c -0.14541,0.1223 -0.334712,0.038 -0.578947,-0.4273 -0.04685,-0.5079 -0.07378,-1.0443 -0.07647,-1.5907 0.0043,-0.6586 0.04551,-1.327 0.117136,-1.9587 0.07998,-0.6279 0.176916,-1.2241 0.295128,-1.729 0.0035,-0.017 0.0075,-0.032 0.01105,-0.048 0.02396,0.07 0.0482,0.1465 0.07378,0.2284 0.05412,0.1607 0.110673,0.343 0.161836,0.5455 0.11552,0.4002 0.209767,0.8779 0.293512,1.3881 0.07459,0.513 0.120637,1.0626 0.135178,1.6106 0.003,0.3272 -0.09802,1.7 -0.432191,1.9816 z m -3.946266,0.034 c -0.02452,-0.044 -0.04901,-0.087 -0.07351,-0.1317 -0.03229,-0.4634 -0.03502,-0.9871 -0.01211,-1.5575 0.02964,-0.5531 0.0999,-1.1422 0.203307,-1.7401 0.07378,0.3027 0.144601,0.6135 0.209229,0.9258 0.184723,0.8951 0.319094,1.7926 0.397722,2.5035 l -0.724626,0 z m -15.443835,-0.618 c -0.405719,0.6409 -0.711161,0.6665 -0.937325,0.4155 -0.317965,-0.3527 -0.479129,-1.2527 -0.541277,-1.7584 -0.08951,-0.7892 -0.142421,-1.6431 -0.15664,-2.508 -0.0051,-0.8633 0.03315,-1.7358 0.106984,-2.5587 0.01789,-0.1734 0.03713,-0.3434 0.05669,-0.5122 0.04136,0.076 0.0831,0.1535 0.128227,0.237 0.05143,0.1074 0.105611,0.2205 0.162214,0.3384 0.232548,0.4672 0.451551,1.0379 0.661938,1.6518 0.198594,0.6193 0.364872,1.2915 0.487741,1.969 0.137794,0.7599 0.503312,1.98 0.03143,2.7256 z m 182.00289,-9.314 c -0.11391,0.144 -0.24424,0.3236 -0.39153,0.5328 -0.1508,0.2077 -0.31775,0.4449 -0.48955,0.7109 -0.35706,0.5265 -0.73594,1.1665 -1.12774,1.8731 -0.38129,0.7101 -0.75882,1.4921 -1.1008,2.2997 -0.33337,0.8092 -0.63523,1.6421 -0.88027,2.4421 -7.2e-4,0 -10e-4,0 -0.002,0.01 -0.0695,-0.4018 -0.12979,-0.8151 -0.17638,-1.2327 -0.0649,-0.663 -0.098,-1.3314 -0.098,-1.9599 0.009,-0.6273 0.0345,-1.216 0.0908,-1.7174 0.0215,-0.2518 0.0512,-0.4812 0.0813,-0.6843 0.0267,-0.2038 0.052,-0.3813 0.0802,-0.5261 0.0512,-0.2908 0.0805,-0.4573 0.0805,-0.4573 0,0 -0.0789,0.1546 -0.2165,0.4255 -0.0716,0.1357 -0.15026,0.3032 -0.23831,0.4979 -0.091,0.1941 -0.19038,0.4158 -0.2884,0.6621 -0.20896,0.4904 -0.41334,1.0798 -0.6153,1.7299 -0.0374,0.1268 -0.0732,0.2574 -0.10905,0.3886 -0.19577,-0.8157 -0.42277,-1.6182 -0.66997,-2.3616 -0.27644,-0.8003 -0.55541,-1.5378 -0.83276,-2.1537 -0.13168,-0.3108 -0.26309,-0.5908 -0.38373,-0.8369 -0.11686,-0.2475 -0.22161,-0.4618 -0.31532,-0.635 -0.18203,-0.3479 -0.28624,-0.5466 -0.28624,-0.5466 0,0 0.0579,0.2197 0.15887,0.604 0.0528,0.1904 0.10744,0.4246 0.16614,0.6931 0.0619,0.2671 0.1271,0.5687 0.185,0.8999 0.0811,0.408 0.15026,0.8641 0.21219,1.3451 -0.0555,0.055 -0.11148,0.1109 -0.17261,0.1739 -0.0784,0.08 -0.16183,0.1643 -0.24962,0.2537 -0.0856,0.092 -0.17099,0.1917 -0.26335,0.2949 -0.37537,0.4103 -0.76798,0.9306 -1.17378,1.519 -0.23051,0.3492 -0.45643,0.7275 -0.67346,1.122 -0.0687,-0.1995 -0.13842,-0.3966 -0.20977,-0.5875 -0.23455,-0.611 -0.46639,-1.1746 -0.68882,-1.6469 -0.1069,-0.2378 -0.21138,-0.4527 -0.3067,-0.642 -0.0932,-0.1898 -0.17584,-0.3546 -0.24855,-0.4882 -0.14244,-0.2679 -0.22377,-0.4209 -0.22377,-0.4209 0,0 0.035,0.1737 0.0961,0.478 0.032,0.1508 0.0649,0.3358 0.0999,0.5477 0.0372,0.2106 0.0757,0.4483 0.10959,0.7087 0.0768,0.5173 0.13464,1.1243 0.17961,1.7652 0.038,0.6435 0.0522,1.3246 0.038,1.9972 -0.0116,0.3956 -0.0329,0.7863 -0.0614,1.1673 -0.0162,0.052 -0.0345,0.1039 -0.0498,0.1557 -0.0595,0.2095 -0.1139,0.4163 -0.16533,0.6207 -0.0207,-0.2254 -0.0431,-0.4548 -0.0689,-0.6916 -0.0859,-0.7189 -0.20789,-1.4802 -0.35895,-2.2341 -0.15834,-0.7527 -0.34548,-1.4969 -0.54852,-2.1858 -0.20976,-0.6869 -0.42088,-1.3214 -0.62984,-1.8548 -0.0996,-0.2685 -0.19846,-0.5113 -0.28946,-0.7254 -0.0881,-0.2149 -0.16669,-0.4012 -0.23725,-0.5523 -0.13706,-0.3038 -0.21542,-0.4772 -0.21542,-0.4772 0,0 0.0307,0.1915 0.0848,0.5262 0.0285,0.1661 0.056,0.3697 0.0848,0.6024 0.0315,0.2318 0.0633,0.4933 0.0883,0.7793 0.0606,0.5687 0.095,1.2343 0.11336,1.9372 0.0105,0.7052 -0.008,1.4506 -0.0584,2.1857 -0.0571,0.7365 -0.14218,1.4616 -0.25097,2.1314 -0.0891,0.5221 -0.18363,1.0079 -0.2838,1.4427 0.0119,-0.2983 0.0183,-0.6096 0.0189,-0.9314 -0.008,-0.6993 -0.0582,-1.4417 -0.1481,-2.1769 -0.0996,-0.7343 -0.23858,-1.4603 -0.40581,-2.1305 -0.17691,-0.6681 -0.36298,-1.2836 -0.56036,-1.7982 -0.0918,-0.2593 -0.18661,-0.4928 -0.27494,-0.6983 -0.0846,-0.2062 -0.16102,-0.385 -0.2313,-0.5291 -0.13598,-0.2897 -0.21354,-0.4551 -0.21354,-0.4551 0,0 0.0301,0.1837 0.0832,0.5057 0.0285,0.1589 0.0539,0.3544 0.0786,0.5779 0.0285,0.2221 0.0555,0.4723 0.0722,0.7462 0.0471,0.5434 0.0539,1.1789 0.0363,1.844 -0.0277,0.6675 -0.0967,1.3677 -0.20546,2.0508 -0.0654,0.381 -0.14298,0.7548 -0.22888,1.117 -0.0407,-0.1091 -0.0811,-0.2184 -0.12387,-0.3269 -0.23293,-0.5706 -0.4944,-1.1267 -0.76556,-1.6324 -0.27789,-0.5025 -0.55175,-0.961 -0.81295,-1.3367 -0.12575,-0.1906 -0.24827,-0.3603 -0.35975,-0.5087 -0.10906,-0.1497 -0.20573,-0.2786 -0.29055,-0.3813 -0.16615,-0.2073 -0.26093,-0.3255 -0.26093,-0.3255 0,0 0.053,0.147 0.14568,0.4042 0.0474,0.1268 0.098,0.2838 0.15295,0.4639 0.0573,0.1786 0.11767,0.3803 0.17395,0.603 0.12198,0.4394 0.227,0.96 0.31613,1.5074 0.0821,0.5512 0.13626,1.1345 0.15591,1.7088 0.0237,0.6843 0.28275,1.8389 -0.66134,1.6792 -0.64762,-0.1095 -0.84204,-0.9125 -0.75829,-1.453 0.13922,-0.8999 0.3918,-1.7823 0.74967,-2.6198 -0.89669,0.9907 -1.41667,2.266 -2.16607,3.2596 0.049,-0.8765 0.23617,-1.7662 0.47339,-2.6106 0.15645,-0.5712 0.3463,-1.134 0.55094,-1.6526 0.0528,-0.1293 0.10475,-0.2564 0.15564,-0.3805 0.0547,-0.1228 0.10798,-0.2429 0.16024,-0.3597 0.0503,-0.1183 0.10798,-0.2284 0.15968,-0.3375 0.0495,-0.1012 0.0975,-0.199 0.14325,-0.2929 0.0813,-0.1575 0.1578,-0.2715 0.21085,-0.3412 0.0199,-0.024 0.0385,-0.047 0.0557,-0.068 0.008,-0.013 0.038,-0.035 0.0555,-0.047 0.0407,-0.026 0.0781,-0.038 0.10367,-0.043 0.0258,0 0.0396,0 0.0396,0 0,0 -0.017,-0.01 -0.0487,-0.029 -0.0331,-0.016 -0.0848,-0.039 -0.15646,-0.047 -0.0792,0 -0.14056,-0.017 -0.26013,0.027 -0.1174,0.046 -0.26847,0.1425 -0.42895,0.2833 -0.0789,0.066 -0.16696,0.1602 -0.25742,0.2518 -0.0894,0.093 -0.18715,0.1868 -0.27871,0.2897 -0.0937,0.1023 -0.19011,0.2076 -0.28866,0.3151 -0.0953,0.1112 -0.19281,0.2248 -0.2919,0.3403 -0.29486,0.353 -0.59268,0.74 -0.87892,1.1485 -0.01,-0.3067 -0.0245,-0.6094 -0.046,-0.9018 -0.0582,-0.6807 -0.13087,-1.3127 -0.22619,-1.8491 -0.0417,-0.269 -0.0894,-0.5138 -0.13518,-0.73 -0.0428,-0.2165 -0.0821,-0.4048 -0.12144,-0.5585 -0.0741,-0.3078 -0.11633,-0.4836 -0.11633,-0.4836 0,0 -0.008,0.1844 -0.0213,0.507 -0.005,0.1602 -0.0188,0.3549 -0.0377,0.5771 -0.0162,0.2218 -0.0382,0.4709 -0.073,0.7413 -0.0574,0.5394 -0.16426,1.1622 -0.29674,1.813 -0.10664,0.4906 -0.23589,0.9971 -0.38426,1.4991 -0.0986,-0.2154 -0.20008,-0.43 -0.30725,-0.6422 -0.23428,-0.4465 -0.48766,-0.8795 -0.7494,-1.2929 0.12333,-0.3689 0.20626,-0.5932 0.20626,-0.5932 0,0 -0.0881,0.098 -0.24207,0.2688 -0.0301,0.033 -0.0644,0.072 -0.0991,0.1112 -0.10797,-0.1654 -0.2173,-0.3269 -0.32797,-0.4834 -0.43785,-0.5991 -0.86896,-1.1395 -1.27718,-1.5685 -0.10071,-0.108 -0.19711,-0.2114 -0.28894,-0.3099 -0.0961,-0.094 -0.18741,-0.1837 -0.27305,-0.268 -0.17018,-0.1688 -0.32098,-0.3131 -0.45238,-0.4249 -0.25797,-0.2273 -0.40527,-0.3571 -0.40527,-0.3571 0,0 0.11122,0.1656 0.3059,0.4554 0.0991,0.1419 0.20923,0.3218 0.33041,0.5291 0.0608,0.1026 0.12548,0.2119 0.19388,0.3269 0.0654,0.1169 0.12925,0.2426 0.19765,0.3714 0.2787,0.5108 0.54744,1.1333 0.79948,1.7936 0.11471,0.3186 0.22081,0.6487 0.31748,0.984 -0.44323,0.556 -0.94705,1.2354 -1.42313,1.9522 -0.17449,-0.4871 -0.36245,-0.9634 -0.55822,-1.4088 -0.27116,-0.5957 -0.5407,-1.1412 -0.80217,-1.5926 -0.12522,-0.2283 -0.24828,-0.4324 -0.36084,-0.6115 -0.10959,-0.1807 -0.20734,-0.3366 -0.29351,-0.4612 -0.16857,-0.2518 -0.26497,-0.3953 -0.26497,-0.3953 0,0 0.0522,0.1688 0.1438,0.4645 0.0471,0.1459 0.0967,0.3266 0.15025,0.5331 0.0334,0.122 0.0673,0.2558 0.10098,0.3959 -0.087,0.097 -0.18472,0.2192 -0.29512,0.3632 -0.11283,0.1417 -0.23697,0.3046 -0.36299,0.4898 -0.2647,0.3657 -0.53802,0.8192 -0.81726,1.3295 -0.26901,0.5126 -0.52751,1.0862 -0.74967,1.6873 -0.21381,0.601 -0.39503,1.2276 -0.52509,1.8335 -0.0226,0.112 -0.0436,0.2224 -0.0638,0.3323 l -0.10744,0 c 0.12198,-0.3609 0.2375,-0.7607 0.34629,-1.1833 0.14083,-0.5813 0.25339,-1.2071 0.32879,-1.8351 0.0587,-0.5555 0.087,-1.1099 0.0881,-1.6377 0.16722,-0.2467 0.33202,-0.4764 0.49251,-0.6802 0.14945,-0.2017 0.29513,-0.3794 0.42762,-0.5345 0.12979,-0.1576 0.24477,-0.2938 0.34575,-0.3999 0.19765,-0.2171 0.31074,-0.3412 0.31074,-0.3412 0,0 -0.14864,0.088 -0.40849,0.2416 -0.13302,0.075 -0.28813,0.175 -0.46504,0.2929 -0.21866,0.1398 -0.46828,0.3081 -0.73082,0.5122 -0.0237,-0.3242 -0.0512,-0.6293 -0.0907,-0.9032 -0.0272,-0.2329 -0.0622,-0.4448 -0.0975,-0.632 -0.032,-0.1874 -0.0622,-0.35 -0.0945,-0.4828 -0.06,-0.2657 -0.0942,-0.4176 -0.0942,-0.4176 0,0 -0.0159,0.1591 -0.0439,0.4378 -0.0119,0.1379 -0.0353,0.3054 -0.0654,0.4955 -0.0269,0.1898 -0.0617,0.402 -0.11121,0.6312 -0.0894,0.4771 -0.24154,1.0251 -0.42304,1.5868 -0.0444,0.068 -0.11175,0.1697 -0.15618,0.2373 -0.0366,0.032 -0.0735,0.064 -0.11094,0.097 -0.49951,0.4596 -1.01222,0.9863 -1.49772,1.5524 -0.12629,0.151 -0.2507,0.3051 -0.37295,0.4602 -0.27817,-0.712 -0.58676,-1.3952 -0.89023,-2.0288 -0.14784,-0.2973 -0.29271,-0.5811 -0.43489,-0.8547 0.12737,-1.136 0.22027,-2.2164 0.27493,-3.088 0.0409,-0.6091 0.0652,-1.117 0.08,-1.4724 0.0143,-0.3555 0.0226,-0.5586 0.0226,-0.5586 0,0 -0.0587,0.198 -0.16157,0.5448 -0.10314,0.3458 -0.25366,0.8388 -0.44512,1.4248 -0.1613,0.5013 -0.35518,1.072 -0.57033,1.6759 -0.21623,-0.3845 -0.40284,-0.7052 -0.54259,-0.9465 -0.185,-0.3174 -0.29055,-0.4987 -0.29055,-0.4987 0,0 0.0603,0.2044 0.16614,0.562 0.10475,0.3576 0.25608,0.8701 0.42438,1.4896 0.003,0.012 0.007,0.024 0.01,0.036 -0.22781,0.6199 -0.47366,1.2624 -0.73136,1.8995 -0.15349,0.3794 -0.31075,0.7564 -0.46827,1.125 -0.18607,-0.3406 -0.38264,-0.6686 -0.58191,-0.9723 -0.27359,-0.4047 -0.54098,-0.7718 -0.79141,-1.0691 -0.12144,-0.1516 -0.23858,-0.2851 -0.34468,-0.4017 -0.0506,-0.057 -0.098,-0.1102 -0.14271,-0.1589 -0.0477,-0.4548 -0.10287,-0.8805 -0.16965,-1.2573 -0.0417,-0.269 -0.0894,-0.5137 -0.13517,-0.73 -0.0428,-0.2165 -0.0824,-0.4047 -0.12145,-0.5584 -0.074,-0.3078 -0.11633,-0.4837 -0.11633,-0.4837 0,0 -0.008,0.1845 -0.0215,0.5071 -0.005,0.1602 -0.0186,0.3552 -0.0377,0.5773 -0.0159,0.2216 -0.038,0.4707 -0.0727,0.7411 -0.0574,0.5393 -0.16453,1.1622 -0.29675,1.813 -0.14164,0.6514 -0.32313,1.3308 -0.53586,1.9905 -0.22027,0.6595 -0.46774,1.2985 -0.72759,1.8779 -0.0967,0.2104 -0.1928,0.4123 -0.28786,0.6051 l -0.004,0.01 c -0.23615,0.4694 -0.93681,0.2968 -0.93843,-0.2286 -0.001,-0.4995 0.0886,-1.0316 0.17395,-1.4446 0.20115,-0.973 0.46074,-1.937 0.68693,-2.6516 0.22377,-0.7158 0.39853,-1.1865 0.39853,-1.1865 0,0 -0.0881,0.098 -0.24235,0.2691 -0.15429,0.1717 -0.37268,0.4203 -0.62715,0.7278 -0.51324,0.6126 -1.16758,1.4695 -1.77508,2.3839 -0.042,0.064 -0.0832,0.1277 -0.12494,0.1912 0.009,-0.5472 0.0487,-1.0946 0.12064,-1.607 0.0862,-0.5364 0.18553,-1.0387 0.31074,-1.4579 0.0296,-0.1053 0.0582,-0.2066 0.0854,-0.3027 0.0318,-0.095 0.0619,-0.1842 0.0905,-0.2685 0.0552,-0.1696 0.10583,-0.3169 0.15564,-0.4346 0.094,-0.2388 0.14757,-0.3751 0.14757,-0.3751 0,0 -0.0996,0.115 -0.27413,0.3162 -0.0907,0.1004 -0.19172,0.2278 -0.3059,0.378 -0.0579,0.075 -0.11982,0.1554 -0.18499,0.2399 -0.0609,0.088 -0.12521,0.1799 -0.19226,0.2761 -0.2752,0.3856 -0.55418,0.8662 -0.83692,1.4086 -0.27089,0.545 -0.52617,1.156 -0.73836,1.7966 -0.0956,0.3029 -0.18176,0.6121 -0.25824,0.922 0.0156,-0.1398 0.0329,-0.2776 0.0528,-0.4128 0.0835,-0.5103 0.17799,-0.9883 0.29351,-1.3882 0.0512,-0.2024 0.10772,-0.3847 0.16157,-0.5455 0.0506,-0.1621 0.0969,-0.3029 0.14218,-0.416 0.0854,-0.2289 0.1341,-0.3598 0.1341,-0.3598 0,0 -0.0951,0.1101 -0.26147,0.3027 -0.0862,0.096 -0.18311,0.2175 -0.2927,0.3603 -0.11256,0.1413 -0.23697,0.3045 -0.36272,0.4898 -0.21731,0.3 -0.44054,0.6613 -0.66781,1.0623 0.17449,-1.4113 0.29755,-2.7871 0.36434,-3.8531 0.0409,-0.6091 0.0652,-1.117 0.08,-1.4724 0.0146,-0.3555 0.0229,-0.5585 0.0229,-0.5585 0,0 -0.059,0.1982 -0.16183,0.5448 -0.10314,0.346 -0.25339,0.8388 -0.44485,1.4247 -0.3778,1.1735 -0.92658,2.7154 -1.53461,4.2182 -0.20088,0.4969 -0.40796,0.9875 -0.6145,1.463 -0.0404,-0.996 -0.15322,-1.966 -0.2822,-2.6971 -0.066,-0.395 -0.1341,-0.7214 -0.18472,-0.9486 -0.0509,-0.2273 -0.08,-0.3571 -0.08,-0.3571 0,0 -0.0213,0.1368 -0.0582,0.3764 -0.0377,0.2384 -0.0961,0.5774 -0.18257,0.9767 -0.16561,0.7998 -0.45428,1.8363 -0.82615,2.8116 -0.0746,0.196 -0.15268,0.3883 -0.23239,0.5775 0.0181,-0.066 0.0364,-0.1287 0.0555,-0.1973 0.14272,-0.4866 0.24774,-1.0672 0.32502,-1.6865 0.066,-0.6215 0.0811,-1.285 0.0439,-1.9423 -0.0493,-0.6573 -0.15053,-1.306 -0.29405,-1.9016 -0.15511,-0.593 -0.32879,-1.1367 -0.52671,-1.5839 -0.0479,-0.1123 -0.0916,-0.2203 -0.1376,-0.3213 -0.0493,-0.1 -0.0961,-0.1942 -0.14003,-0.283 -0.0867,-0.178 -0.16533,-0.3309 -0.23992,-0.4527 -0.14299,-0.2447 -0.22458,-0.3847 -0.22458,-0.3847 0,0 0.0361,0.1618 0.0988,0.4456 0.0334,0.139 0.0622,0.3115 0.0891,0.5081 0.014,0.097 0.0291,0.2006 0.0447,0.3097 0.0124,0.1096 0.0199,0.2256 0.0299,0.3447 0.0463,0.4747 0.0366,1.0292 -0.006,1.5984 -0.0552,0.5725 -0.16372,1.163 -0.31909,1.7247 -0.10852,0.3662 -0.23589,0.7171 -0.37511,1.0473 -0.003,-0.5125 -0.0202,-1.0139 -0.045,-1.4892 -0.0442,-0.685 -0.0964,-1.3194 -0.15402,-1.8555 -0.11202,-1.0745 -0.20196,-1.7759 -0.20196,-1.7759 0,0 -0.11256,0.7173 -0.30536,1.7969 -0.0945,0.5385 -0.22054,1.1684 -0.36676,1.8332 -0.15456,0.6651 -0.33363,1.3663 -0.55175,2.046 -0.22296,0.6783 -0.47177,1.3353 -0.75101,1.9143 l -0.003,0 c -0.20412,0.4185 -0.84769,0.3076 -0.87516,-0.1572 -0.002,-0.033 -0.002,-0.066 0.001,-0.099 0.0183,-0.202 0.0412,-0.4064 0.0684,-0.6107 0.0703,-0.4775 0.16371,-0.9538 0.27412,-1.3968 0.11633,-0.4405 0.23723,-0.8517 0.36514,-1.1953 0.0592,-0.174 0.12063,-0.3309 0.17745,-0.4688 0.0547,-0.1392 0.10394,-0.2604 0.14918,-0.3576 0.0872,-0.1966 0.13734,-0.3092 0.13734,-0.3092 0,0 -0.0948,0.089 -0.2604,0.2432 -0.0851,0.077 -0.18284,0.175 -0.29432,0.2898 -0.11363,0.1133 -0.24019,0.2444 -0.37187,0.3934 -0.21596,0.2329 -0.44592,0.5119 -0.68531,0.8221 0.0695,-0.492 0.15752,-0.9767 0.26174,-1.4353 0.15106,-0.6182 0.31128,-1.1948 0.48712,-1.6754 0.0425,-0.121 0.0835,-0.2367 0.12225,-0.3471 0.0431,-0.1083 0.0843,-0.2111 0.12279,-0.3078 0.0757,-0.1944 0.14406,-0.3633 0.20815,-0.4984 0.1228,-0.2736 0.19308,-0.4298 0.19308,-0.4298 0,0 -0.11525,0.133 -0.31694,0.3657 -0.10421,0.116 -0.22216,0.2625 -0.35545,0.4338 -0.13653,0.1699 -0.28759,0.3651 -0.44162,0.5865 -0.32259,0.4362 -0.65892,0.9755 -1.00467,1.5779 -0.33418,0.6062 -0.65919,1.281 -0.94517,1.9854 -0.27628,0.7053 -0.51782,1.4377 -0.7012,2.1451 -0.0374,0.151 -0.0724,0.2999 -0.10609,0.4478 -0.17368,-0.2819 -0.98313,-1.8273 -0.5092,-0.8579 0.16075,0.3287 -0.34387,-0.6409 -0.47393,-0.9694 -0.0811,-0.1721 -0.13114,-0.359 -0.20223,-0.5394 0,0 0,-0.01 -2.2e-4,-0.012 0.1201,-0.332 0.26713,-0.6551 0.43704,-0.9449 0.20061,-0.3161 0.40715,-0.6075 0.61961,-0.8202 0.052,-0.055 0.0996,-0.1101 0.14864,-0.1586 0.0512,-0.045 0.0996,-0.089 0.14514,-0.1293 0.0899,-0.084 0.17072,-0.1553 0.24343,-0.2038 0.1411,-0.1061 0.22188,-0.1669 0.22188,-0.1669 0,0 -0.10771,0.018 -0.2962,0.049 -0.0988,0.013 -0.21354,0.041 -0.34656,0.08 -0.0681,0.019 -0.14057,0.039 -0.21704,0.061 -0.0754,0.025 -0.15187,0.057 -0.23508,0.088 -0.32044,0.1141 -0.67293,0.3061 -1.050465,0.5517 -0.0361,-0.3584 -0.0493,-0.7157 -0.0391,-1.062 0.0183,-0.7058 0.13356,-1.3639 0.2857,-1.9113 0.153235,-0.548 0.340385,-0.9853 0.479335,-1.2869 0.15214,-0.2954 0.23912,-0.4642 0.23912,-0.4642 0,0 -0.13195,0.1383 -0.36137,0.3966 -0.21946,0.2644 -0.528615,0.6578 -0.838005,1.191 -0.30644,0.5326 -0.61288,1.2048 -0.82911,1.9816 -0.2025,0.7208 -0.32852,1.5309 -0.34198,2.3691 -0.0937,-0.1906 -0.18957,-0.3826 -0.28786,-0.5738 -0.66512,-1.3216 -1.41452,-2.5835 -1.7285,-3.1015 -0.0442,-0.5125 -0.10528,-0.9921 -0.18903,-1.4229 -0.032,-0.1761 -0.0592,-0.3455 -0.0918,-0.5052 -0.0374,-0.1589 -0.073,-0.3096 -0.10637,-0.4513 -0.0336,-0.1414 -0.0652,-0.2736 -0.0943,-0.3958 -0.0307,-0.1217 -0.0676,-0.2319 -0.0964,-0.3321 -0.11983,-0.3993 -0.1885,-0.6273 -0.1885,-0.6273 0,0 0.0191,0.2396 0.0525,0.6591 0.007,0.1042 0.0194,0.2187 0.024,0.3442 0.003,0.1257 0.005,0.2614 0.008,0.4066 0.003,0.1438 0.005,0.2967 0.008,0.458 -0.002,0.1613 -0.0119,0.3312 -0.0183,0.5068 -0.0164,0.7018 -0.12091,1.5128 -0.26928,2.3532 -0.15053,0.7553 -0.36326,1.5325 -0.62392,2.2862 -0.2515,-0.492 -0.52671,-0.9635 -0.81429,-1.3927 -0.37295,-0.5348 -0.74348,-1.0152 -1.09973,-1.3938 -0.0878,-0.095 -0.1718,-0.1866 -0.25178,-0.2736 -0.0845,-0.083 -0.16453,-0.1613 -0.23966,-0.2351 -0.007,-0.01 -0.0124,-0.012 -0.0191,-0.018 -0.0229,-0.7265 -0.0759,-1.3973 -0.1306,-1.9787 -0.0722,-0.7367 -0.14864,-1.341 -0.20303,-1.7616 -0.0549,-0.4198 -0.0864,-0.6595 -0.0864,-0.6595 0,0 -0.0191,0.2437 -0.0528,0.6703 -0.0342,0.4268 -0.0845,1.0396 -0.16507,1.7745 -0.16237,1.464 -0.45723,3.4457 -1.16462,5.2189 -0.17799,0.4402 -0.37457,0.8663 -0.59295,1.2669 -0.2235,0.3983 -0.45454,0.7764 -0.70658,1.1159 -0.25743,0.3552 -0.52806,0.67 -0.79734,0.9455 0.0638,-0.3741 0.1376,-0.7562 0.22297,-1.138 0.13894,-0.5922 0.30186,-1.1805 0.47716,-1.7263 0.18176,-0.5432 0.36406,-1.0489 0.5442,-1.4722 0.0856,-0.2141 0.171,-0.4072 0.24909,-0.5773 0.0762,-0.1713 0.14379,-0.3202 0.20465,-0.4403 0.11794,-0.2424 0.18526,-0.3808 0.18526,-0.3808 0,0 -0.11148,0.1134 -0.3067,0.3121 -0.0999,0.099 -0.2157,0.223 -0.34737,0.3676 -0.1341,0.1435 -0.28328,0.308 -0.43974,0.4933 -0.32205,0.366 -0.67373,0.8149 -1.04318,1.3138 -0.36244,0.502 -0.73136,1.0588 -1.07819,1.6391 -0.22107,0.3775 -0.43273,0.7642 -0.63065,1.149 -0.0345,-0.1688 -0.0633,-0.3414 -0.0843,-0.517 -0.0342,-0.3945 -0.0326,-0.7957 0.008,-1.1708 0.0522,-0.3705 0.11875,-0.7206 0.22027,-1.0039 0.024,-0.072 0.0439,-0.1419 0.0673,-0.2068 0.0267,-0.063 0.052,-0.1233 0.0757,-0.1796 0.0452,-0.1144 0.0875,-0.2135 0.1314,-0.2894 0.0811,-0.1576 0.12711,-0.2475 0.12711,-0.2475 0,0 -0.0891,0.063 -0.24559,0.1734 -0.0829,0.055 -0.17395,0.1298 -0.27735,0.2216 -0.053,0.046 -0.1096,0.096 -0.16938,0.1473 -0.0573,0.054 -0.1131,0.1152 -0.17476,0.1785 -0.25339,0.2507 -0.5057,0.5887 -0.7599,0.9899 -0.11606,0.1957 -0.227,0.408 -0.3296,0.6325 -0.0948,-0.5057 -0.16937,-1.0383 -0.21811,-1.5771 -0.0479,-0.6576 -0.0584,-1.3203 -0.0307,-1.9424 0.0388,-0.6201 0.0942,-1.2017 0.18391,-1.6934 0.0208,-0.1234 0.0407,-0.2419 0.0595,-0.3541 0.0237,-0.1118 0.0463,-0.2173 0.0676,-0.3167 0.0409,-0.1995 0.0792,-0.3732 0.11929,-0.5138 0.074,-0.2833 0.1166,-0.4454 0.1166,-0.4454 0,0 -0.0907,0.1465 -0.24935,0.4026 -0.0829,0.1284 -0.17369,0.2884 -0.27521,0.475 -0.0517,0.094 -0.10663,0.1933 -0.16453,0.2986 -0.0536,0.1075 -0.10986,0.2208 -0.16856,0.3388 -0.24181,0.4739 -0.4777,1.051 -0.7109,1.6921 -0.0751,0.062 -0.15106,0.1223 -0.23238,0.1869 -0.0945,0.079 -0.1893,0.167 -0.2919,0.2574 -0.4155,0.3571 -0.85819,0.8232 -1.32,1.3572 -0.26551,0.3207 -0.52859,0.6721 -0.7836,1.0416 -0.0162,-0.2545 -0.0285,-0.5119 -0.0339,-0.7707 -0.004,-0.6088 0.0229,-1.2199 0.0786,-1.792 0.0644,-0.5701 0.14056,-1.1038 0.23966,-1.5546 0.0431,-0.2273 0.0921,-0.4333 0.13921,-0.615 0.0436,-0.1829 0.084,-0.342 0.12414,-0.471 0.0754,-0.2596 0.11821,-0.4082 0.11821,-0.4082 0,0 -0.0907,0.1314 -0.24962,0.3614 -0.0824,0.1152 -0.17449,0.2585 -0.27843,0.426 -0.1069,0.1664 -0.22431,0.357 -0.34279,0.5714 -0.24989,0.4243 -0.5049,0.9416 -0.76394,1.5168 -0.24882,0.5768 -0.48578,1.2147 -0.68693,1.8755 -0.002,0.01 -0.004,0.013 -0.005,0.019 -0.006,-0.01 -0.0119,-0.018 -0.0178,-0.026 0.0207,-0.1497 0.0415,-0.2995 0.0644,-0.4495 0.13356,-0.7986 0.30159,-1.5932 0.49278,-2.3314 0.20061,-0.7351 0.4058,-1.419 0.61746,-1.9929 0.0994,-0.2897 0.20034,-0.5515 0.29378,-0.7822 0.0899,-0.2321 0.17072,-0.4338 0.2445,-0.5965 0.14245,-0.3285 0.22377,-0.5162 0.22377,-0.5162 0,0 -0.12683,0.1654 -0.34898,0.4543 -0.11391,0.144 -0.24424,0.3236 -0.39153,0.5329 -0.1508,0.2076 -0.31748,0.4448 -0.48955,0.7109 -0.35706,0.5264 -0.73594,1.1665 -1.12774,1.8731 -0.26685,0.4973 -0.53128,1.031 -0.78386,1.5828 -0.32933,-0.3646 -0.65516,-0.6934 -0.97263,-0.9697 -0.13222,-0.1179 -0.25555,-0.2337 -0.37834,-0.3382 -0.0237,-0.019 -0.0442,-0.035 -0.0673,-0.053 0.0102,-0.1328 0.0221,-0.2612 0.0358,-0.3843 0.0215,-0.2517 0.0512,-0.4812 0.0813,-0.6842 0.0267,-0.2039 0.052,-0.3813 0.0803,-0.5262 0.0512,-0.2908 0.0805,-0.4572 0.0805,-0.4572 0,0 -0.0786,0.1546 -0.2165,0.4255 -0.0716,0.1357 -0.15026,0.3031 -0.23804,0.4978 -0.0913,0.1942 -0.19065,0.4158 -0.2884,0.6622 -0.0102,0.024 -0.0205,0.051 -0.0307,0.075 -0.0382,-0.03 -0.0767,-0.061 -0.11282,-0.089 -0.0988,-0.075 -0.19604,-0.1365 -0.28032,-0.1957 -0.34091,-0.2319 -0.53559,-0.3643 -0.53559,-0.3643 0,0 0.16345,0.1723 0.44942,0.4744 0.07,0.076 0.15053,0.1559 0.23104,0.2501 0.0463,0.056 0.0953,0.1161 0.14595,0.1778 -0.16291,0.4179 -0.32367,0.8897 -0.48254,1.4011 -0.0374,0.1268 -0.0733,0.2574 -0.10906,0.3885 -0.19577,-0.8156 -0.42277,-1.6181 -0.66997,-2.3616 -0.27654,-0.8002 -0.55552,-1.5378 -0.83287,-2.1536 -0.13159,-0.3108 -0.263,-0.5908 -0.38364,-0.837 -0.11686,-0.2474 -0.22161,-0.4618 -0.31532,-0.6349 -0.18203,-0.3479 -0.28624,-0.5466 -0.28624,-0.5466 0,0 0.0579,0.2197 0.15887,0.6039 0.0528,0.1904 0.10744,0.4247 0.16614,0.6932 0.0619,0.2671 0.1271,0.5687 0.185,0.8999 0.081,0.408 0.15026,0.8641 0.21219,1.345 -0.0555,0.055 -0.11148,0.111 -0.17261,0.174 -0.0784,0.08 -0.16183,0.1642 -0.24962,0.2536 -0.0856,0.092 -0.17099,0.1918 -0.26335,0.2949 -0.37537,0.4104 -0.76798,0.9306 -1.17378,1.519 -0.23051,0.3493 -0.45643,0.7276 -0.67347,1.1221 -0.0687,-0.1995 -0.13841,-0.3967 -0.20976,-0.5876 -0.23455,-0.611 -0.46639,-1.1746 -0.68882,-1.6469 -0.1069,-0.2378 -0.21138,-0.4526 -0.3067,-0.6419 -0.0932,-0.1899 -0.17584,-0.3547 -0.24855,-0.4882 -0.14245,-0.268 -0.22377,-0.4209 -0.22377,-0.4209 0,0 0.035,0.1737 0.0961,0.478 0.032,0.1507 0.0649,0.3357 0.0999,0.5477 0.0372,0.2105 0.0757,0.4483 0.10959,0.7087 0.0767,0.5173 0.13464,1.1242 0.17961,1.7651 0.038,0.6436 0.0522,1.3246 0.038,1.9972 -0.0116,0.3956 -0.0329,0.7863 -0.0614,1.1674 -0.0162,0.052 -0.0345,0.1039 -0.0498,0.1556 -0.0595,0.2095 -0.11391,0.4163 -0.16534,0.6204 -0.0207,-0.2251 -0.0431,-0.4545 -0.0689,-0.6912 -0.0856,-0.719 -0.20789,-1.4802 -0.35868,-2.2342 -0.15861,-0.7526 -0.34575,-1.4969 -0.54852,-2.1858 -0.21004,-0.6869 -0.42115,-1.3213 -0.63011,-1.8547 -0.09963,-0.2685 -0.198458,-0.5114 -0.289473,-0.7255 -0.08805,-0.2148 -0.166683,-0.4012 -0.237233,-0.5522 -0.137063,-0.3038 -0.215422,-0.4772 -0.215422,-0.4772 0,0 0.03068,0.1914 0.08482,0.5262 0.02853,0.1661 0.05601,0.3697 0.08482,0.6023 0.03151,0.2319 0.06328,0.4933 0.08832,0.7793 0.06059,0.5688 0.09506,1.2344 0.113363,1.9372 0.0105,0.7052 -0.0081,1.4506 -0.05843,2.1858 -0.05682,0.7364 -0.142177,1.4616 -0.250967,2.1313 -0.08913,0.5221 -0.183648,1.0079 -0.283818,1.4428 0.01186,-0.2984 0.01832,-0.6097 0.01885,-0.9315 -0.0081,-0.6993 -0.05817,-1.4417 -0.148102,-2.1768 -0.09964,-0.7343 -0.23858,-1.4603 -0.405805,-2.1305 -0.176644,-0.6681 -0.362984,-1.2837 -0.560366,-1.7983 -0.09182,-0.2593 -0.186609,-0.4928 -0.274932,-0.6982 -0.08455,-0.2063 -0.161028,-0.3851 -0.231309,-0.5292 -0.135986,-0.2897 -0.213538,-0.455 -0.213538,-0.455 0,0 0.03016,0.1836 0.08321,0.5057 0.02854,0.1588 0.05386,0.3544 0.0789,0.5778 0.02827,0.2222 0.0552,0.4723 0.0719,0.7462 0.04739,0.5434 0.05385,1.1789 0.03635,1.844 -0.02773,0.6676 -0.09667,1.3677 -0.205189,2.0508 -0.028,0.1619 -0.05897,0.3218 -0.09102,0.481 -0.01023,0.2967 -0.03231,0.5938 -0.06436,0.8902 -0.0692,0.6404 -1.026756,0.5739 -1.015446,-0.07 2.15e-4,0 2.15e-4,-0.01 2.15e-4,-0.01 0.01967,-0.5744 0.07378,-1.1577 0.155912,-1.7089 0.08913,-0.5474 0.19388,-1.0679 0.316132,-1.5074 0.05628,-0.2227 0.116597,-0.4244 0.173954,-0.6029 0.05493,-0.1802 0.105556,-0.3372 0.152949,-0.464 0.09263,-0.2572 0.145679,-0.4042 0.145679,-0.4042 0,0 -0.09479,0.1182 -0.26093,0.3256 -0.08482,0.1026 -0.181493,0.2316 -0.29055,0.3813 -0.111482,0.1484 -0.234003,0.318 -0.359756,0.5087 -0.261199,0.3756 -0.535054,0.8342 -0.812949,1.3366 -0.271163,0.5057 -0.532632,1.0618 -0.765557,1.6324 -0.04282,0.1085 -0.08321,0.2178 -0.123867,0.3269 -0.0859,-0.3622 -0.163452,-0.7359 -0.228887,-1.117 -0.108788,-0.6831 -0.177723,-1.3832 -0.205459,-2.0508 -0.01751,-0.6651 -0.01077,-1.3006 0.03635,-1.844 0.01669,-0.2738 0.04362,-0.524 0.07217,-0.7461 0.02477,-0.2236 0.05009,-0.419 0.07863,-0.5779 0.05305,-0.3221 0.08321,-0.5057 0.08321,-0.5057 0,0 -0.07755,0.1653 -0.213537,0.455 -0.07023,0.1441 -0.146702,0.3229 -0.231256,0.5292 -0.08832,0.2054 -0.183108,0.4389 -0.274932,0.6982 -0.197381,0.5146 -0.383721,1.1302 -0.560367,1.7982 -0.167222,0.6703 -0.306169,1.3963 -0.405802,2.1306 -0.08994,0.7351 -0.140025,1.4775 -0.148103,2.1768 4.3e-4,0.3218 0.007,0.6331 0.01885,0.9315 -0.100171,-0.435 -0.194688,-0.9207 -0.283819,-1.4428 -0.108788,-0.6697 -0.19388,-1.3949 -0.250967,-2.1314 -0.05008,-0.7351 -0.06893,-1.4805 -0.05843,-2.1857 0.01831,-0.7028 0.05278,-1.3685 0.113366,-1.9372 0.02504,-0.2859 0.05682,-0.5474 0.08832,-0.7793 0.02881,-0.2326 0.05628,-0.4362 0.08482,-0.6024 0.05412,-0.3347 0.08482,-0.5261 0.08482,-0.5261 0,0 -0.07836,0.1734 -0.215422,0.4771 -0.07055,0.1511 -0.14918,0.3374 -0.237234,0.5523 -0.09102,0.2141 -0.189841,0.457 -0.289473,0.7255 -0.20896,0.5334 -0.420074,1.1678 -0.63011,1.8548 -0.202766,0.6888 -0.389914,1.4331 -0.54825,2.1857 -0.151065,0.7539 -0.273317,1.5152 -0.358947,2.2342 -0.02585,0.2367 -0.0482,0.4661 -0.06894,0.6912 -0.05143,-0.2041 -0.105826,-0.4109 -0.165337,-0.6204 -0.01534,-0.052 -0.03366,-0.1039 -0.04982,-0.1556 -0.02854,-0.3811 -0.04982,-0.7718 -0.0614,-1.1674 -0.01428,-0.6726 0,-1.3536 0.03797,-1.9972 0.04497,-0.6409 0.102864,-1.2479 0.179608,-1.7651 0.03393,-0.2604 0.07244,-0.4982 0.109596,-0.7088 0.03501,-0.2119 0.06786,-0.3969 0.0999,-0.5477 0.06113,-0.3042 0.09613,-0.4779 0.09613,-0.4779 0,0 -0.08132,0.1529 -0.223769,0.4208 -0.07271,0.1336 -0.155374,0.2984 -0.248544,0.4882 -0.09532,0.1894 -0.199804,0.4042 -0.306707,0.642 -0.222424,0.4723 -0.454272,1.0359 -0.688813,1.6469 -0.07136,0.1909 -0.141102,0.388 -0.209767,0.5876 -0.217038,-0.3945 -0.442962,-0.7729 -0.673464,-1.1221 -0.405802,-0.5884 -0.798408,-1.1086 -1.173782,-1.519 -0.09236,-0.1031 -0.177723,-0.2033 -0.263353,-0.2949 -0.08778,-0.089 -0.171261,-0.1739 -0.249621,-0.2536 -0.06113,-0.063 -0.117136,-0.119 -0.172607,-0.174 0.06193,-0.4809 0.131138,-0.9371 0.212191,-1.345 0.0579,-0.3312 0.12306,-0.6328 0.184994,-0.8999 0.0587,-0.2685 0.113366,-0.5028 0.166144,-0.6932 0.10098,-0.3842 0.158874,-0.6039 0.158874,-0.6039 0,0 -0.104211,0.1987 -0.286242,0.5466 -0.09371,0.1731 -0.198458,0.3875 -0.315325,0.6349 -0.120636,0.2461 -0.252043,0.5262 -0.38372,0.8369 -0.277356,0.6159 -0.556328,1.3534 -0.832876,2.1537 -0.247197,0.7435 -0.474198,1.546 -0.669963,2.3616 -0.03581,-0.1312 -0.07163,-0.2617 -0.109058,-0.3886 -0.158874,-0.5113 -0.319363,-0.9831 -0.482546,-1.401 0.05062,-0.062 0.09963,-0.1215 0.145949,-0.1777 0.08051,-0.094 0.161028,-0.1743 0.23104,-0.2502 0.285973,-0.3021 0.449425,-0.4745 0.449425,-0.4745 0,0 -0.194688,0.1325 -0.535594,0.3644 -0.08428,0.059 -0.181493,0.1206 -0.280318,0.1957 -0.03608,0.028 -0.07459,0.059 -0.112827,0.089 -0.01023,-0.024 -0.02047,-0.051 -0.0307,-0.075 -0.09775,-0.2464 -0.197111,-0.468 -0.288396,-0.6621 -0.08778,-0.1947 -0.166414,-0.3622 -0.238042,-0.498 -0.137601,-0.2708 -0.216499,-0.4254 -0.216499,-0.4254 0,0 0.02935,0.1664 0.08051,0.4572 0.02827,0.1449 0.05359,0.3224 0.08024,0.5262 0.03016,0.203 0.05978,0.4324 0.08132,0.6842 0.01372,0.1231 0.02558,0.2515 0.03581,0.3843 -0.02316,0.018 -0.04362,0.034 -0.06732,0.053 -0.122522,0.1045 -0.24612,0.2203 -0.378336,0.3382 -0.317478,0.2763 -0.643304,0.6051 -0.972631,0.9697 -0.252582,-0.5518 -0.517013,-1.0855 -0.783867,-1.5828 -0.3918,-0.7066 -0.770673,-1.3467 -1.127736,-1.8731 -0.171799,-0.2661 -0.338751,-0.5033 -0.489547,-0.7109 -0.147294,-0.2092 -0.277625,-0.3889 -0.391529,-0.5329 -0.222155,-0.289 -0.348984,-0.4543 -0.348984,-0.4543 0,0 0.08132,0.1877 0.223769,0.5162 0.07378,0.1627 0.154566,0.3643 0.244505,0.5965 0.09344,0.2307 0.194418,0.4925 0.293782,0.7822 0.211652,0.5738 0.416842,1.2578 0.617453,1.993 0.191188,0.738 0.359217,1.5327 0.492779,2.3314 0.02316,0.1499 0.04362,0.2996 0.06436,0.4494 -0.0059,0.01 -0.01185,0.018 -0.01777,0.026 -0.0019,-0.01 -0.0035,-0.013 -0.0054,-0.019 -0.20115,-0.6608 -0.438115,-1.2988 -0.686928,-1.8756 -0.259045,-0.5752 -0.514051,-1.0924 -0.76394,-1.5168 -0.118483,-0.2144 -0.235888,-0.405 -0.342791,-0.5714 -0.103941,-0.1675 -0.196034,-0.3108 -0.278433,-0.426 -0.158874,-0.23 -0.249621,-0.3614 -0.249621,-0.3614 0,0 0.04282,0.1487 0.118213,0.4082 0.04012,0.129 0.08051,0.2882 0.124406,0.471 0.04686,0.1818 0.09586,0.3877 0.138948,0.615 0.09909,0.4508 0.1753,0.9845 0.239657,1.5546 0.05574,0.5722 0.08267,1.1832 0.07863,1.792 -0.0054,0.2588 -0.01777,0.5162 -0.03393,0.7707 -0.255006,-0.3694 -0.51809,-0.7208 -0.783598,-1.0416 -0.461812,-0.534 -0.904504,-1.0001 -1.32,-1.3571 -0.102595,-0.091 -0.19738,-0.1783 -0.291897,-0.2574 -0.08132,-0.065 -0.157258,-0.1247 -0.232387,-0.1869 -0.233194,-0.6412 -0.469082,-1.2183 -0.710893,-1.6922 -0.0587,-0.1179 -0.114981,-0.2313 -0.168568,-0.3388 -0.0579,-0.1052 -0.112827,-0.2049 -0.164529,-0.2986 -0.101517,-0.1866 -0.192264,-0.3465 -0.275201,-0.475 -0.158605,-0.256 -0.249352,-0.4025 -0.249352,-0.4025 0,0 0.04255,0.162 0.116598,0.4453 0.04012,0.1406 0.07836,0.3143 0.11929,0.5138 0.02128,0.099 0.04389,0.2049 0.06759,0.3167 0.01885,0.1123 0.03878,0.2308 0.05978,0.3541 0.0894,0.4917 0.144872,1.0733 0.183647,1.6935 0.02774,0.622 0.01723,1.2847 -0.03069,1.9423 -0.04874,0.5388 -0.12333,1.0715 -0.218115,1.5772 -0.102595,-0.2246 -0.213538,-0.4368 -0.329596,-0.6326 -0.254199,-0.4012 -0.506512,-0.7391 -0.759902,-0.9899 -0.06166,-0.063 -0.117405,-0.1241 -0.174761,-0.1785 -0.05978,-0.052 -0.116329,-0.101 -0.169376,-0.1473 -0.103403,-0.092 -0.194419,-0.1669 -0.277356,-0.2216 -0.156451,-0.1101 -0.245582,-0.1734 -0.245582,-0.1734 0,0 0.04605,0.09 0.1271,0.2475 0.04389,0.076 0.08617,0.175 0.131676,0.2894 0.02343,0.056 0.04874,0.1164 0.0754,0.1796 0.02343,0.065 0.04362,0.1352 0.06732,0.2068 0.101518,0.2833 0.16803,0.6334 0.22027,1.0039 0.04039,0.3751 0.04201,0.7763 0.0078,1.1708 -0.021,0.1756 -0.04982,0.3482 -0.08428,0.517 -0.197908,-0.3847 -0.40956,-0.7714 -0.630638,-1.1489 -0.346829,-0.5803 -0.71574,-1.1372 -1.078188,-1.6392 -0.369449,-0.4989 -0.721125,-0.9478 -1.043182,-1.3138 -0.15645,-0.1852 -0.30563,-0.3498 -0.43973,-0.4933 -0.131677,-0.1446 -0.247467,-0.2687 -0.347369,-0.3676 -0.195226,-0.1987 -0.306707,-0.312 -0.306707,-0.312 0,0 0.06732,0.1384 0.185263,0.3807 0.06086,0.1201 0.128445,0.269 0.204651,0.4403 0.07809,0.1702 0.163452,0.3632 0.249082,0.5773 0.180147,0.4233 0.362448,0.929 0.544211,1.4722 0.175299,0.5458 0.338213,1.1342 0.47716,1.7263 0.08536,0.3818 0.159143,0.7639 0.222962,1.138 -0.269278,-0.2755 -0.539902,-0.5903 -0.797332,-0.9455 -0.252044,-0.3395 -0.483084,-0.7176 -0.706585,-1.1159 -0.218384,-0.4006 -0.414957,-0.8266 -0.592949,-1.2669 -0.707393,-1.7732 -1.002252,-3.7548 -1.164626,-5.2189 -0.08051,-0.7348 -0.1306,-1.3477 -0.165068,-1.7745 -0.03366,-0.4265 -0.05278,-0.6702 -0.05278,-0.6702 0,0 -0.03151,0.2396 -0.08644,0.6594 -0.05439,0.4206 -0.130868,1.0249 -0.203035,1.7616 -0.05466,0.5814 -0.107711,1.2522 -0.1306,1.9787 -0.0067,0.01 -0.01239,0.012 -0.01913,0.018 -0.07513,0.074 -0.155104,0.1524 -0.239657,0.235 -0.07998,0.087 -0.163991,0.1783 -0.251506,0.2736 -0.356523,0.3786 -0.72705,0.859 -1.099999,1.3938 -0.287589,0.4292 -0.562521,0.9007 -0.814296,1.3927 -0.260661,-0.7537 -0.47339,-1.5308 -0.623917,-2.2861 -0.148103,-0.8405 -0.252852,-1.6515 -0.269278,-2.3533 -0.0065,-0.1755 -0.01642,-0.3455 -0.01831,-0.5068 0.0027,-0.1612 0.0051,-0.3142 0.0075,-0.458 0.0029,-0.1452 0.0054,-0.2809 0.0078,-0.4066 0.0046,-0.1255 0.01698,-0.2399 0.02397,-0.3442 0.03339,-0.4195 0.05251,-0.6591 0.05251,-0.6591 0,0 -0.06867,0.228 -0.188495,0.6274 -0.02881,0.1001 -0.0657,0.2103 -0.0964,0.332 -0.02908,0.1223 -0.06059,0.2545 -0.09425,0.3959 -0.03339,0.1416 -0.06894,0.2924 -0.106365,0.4512 -0.03258,0.1597 -0.05978,0.3291 -0.09182,0.5052 -0.08375,0.4308 -0.144871,0.9105 -0.189033,1.4229 -0.313978,0.5181 -1.063378,1.7799 -1.728494,3.1015 -0.09829,0.1912 -0.194149,0.3832 -0.287858,0.5739 -0.01346,-0.8383 -0.139486,-1.6483 -0.341982,-2.3692 -0.21623,-0.7768 -0.522669,-1.4489 -0.829107,-1.9816 -0.3094,-0.5331 -0.618531,-0.9266 -0.837992,-1.191 -0.229425,-0.2582 -0.361371,-0.3966 -0.361371,-0.3966 0,0 0.08698,0.1688 0.239119,0.4642 0.138947,0.3016 0.326095,0.7389 0.479314,1.2869 0.152142,0.5474 0.267393,1.2055 0.285704,1.9113 0.01023,0.3463 -0.003,0.7036 -0.03905,1.062 -0.377528,-0.2456 -0.730012,-0.4375 -1.050453,-0.5517 -0.08321,-0.031 -0.159682,-0.063 -0.235079,-0.088 -0.07647,-0.022 -0.148911,-0.042 -0.217038,-0.061 -0.133024,-0.039 -0.247736,-0.068 -0.346561,-0.08 -0.188494,-0.031 -0.296205,-0.049 -0.296205,-0.049 0,0 0.08078,0.061 0.221885,0.1669 0.0727,0.048 0.153488,0.1198 0.243427,0.2039 0.04551,0.04 0.09398,0.084 0.14514,0.1292 0.04901,0.049 0.09667,0.104 0.148642,0.1586 0.21246,0.2127 0.418996,0.5041 0.619608,0.8202 0.170183,0.2898 0.31694,0.6129 0.437038,0.9449 -2.16e-4,0 -2.16e-4,0.01 -2.16e-4,0.012 -0.07109,0.1804 -0.121175,0.3672 -0.202227,0.5393 -0.129792,0.3285 -0.634688,1.2982 -0.473929,0.9694 0.473929,-0.9694 -0.33552,0.576 -0.509205,0.8579 -0.03366,-0.1478 -0.06866,-0.2967 -0.106095,-0.4478 -0.183378,-0.7074 -0.42492,-1.4398 -0.701199,-2.145 -0.285973,-0.7045 -0.610992,-1.3793 -0.945165,-1.9854 -0.345753,-0.6024 -0.682081,-1.1418 -1.004676,-1.578 -0.154027,-0.2214 -0.305092,-0.4166 -0.441615,-0.5865 -0.133293,-0.1712 -0.251237,-0.3177 -0.355447,-0.4338 -0.201689,-0.2326 -0.31694,-0.3657 -0.31694,-0.3657 0,0 0.07028,0.1562 0.193072,0.4298 0.06409,0.1352 0.132485,0.304 0.208152,0.4984 0.03878,0.097 0.07971,0.1996 0.12306,0.3078 0.03851,0.1104 0.07944,0.2262 0.121983,0.3471 0.175838,0.4807 0.336058,1.0572 0.487123,1.6754 0.10421,0.4587 0.192264,0.9434 0.261738,1.4353 -0.239388,-0.3102 -0.469351,-0.5892 -0.685312,-0.8221 -0.131677,-0.1489 -0.258237,-0.28 -0.371872,-0.3934 -0.111481,-0.1147 -0.209229,-0.2125 -0.294321,-0.2898 -0.165606,-0.1545 -0.260391,-0.2431 -0.260391,-0.2431 0,0 0.05009,0.1126 0.137331,0.3091 0.04551,0.097 0.09452,0.2184 0.14918,0.3576 0.05682,0.1379 0.118213,0.2949 0.177454,0.4688 0.127907,0.3436 0.248813,0.7548 0.36541,1.1954 0.110135,0.4429 0.203574,0.9193 0.274125,1.3967 0.02693,0.2044 0.04982,0.4087 0.06813,0.6107 0.0032,0.033 0.0038,0.066 0.0015,0.099 -0.02747,0.4648 -0.67104,0.5757 -0.875152,0.1573 l -0.0024,0 c -0.279241,-0.5789 -0.528054,-1.236 -0.751016,-1.9143 -0.218115,-0.6796 -0.397184,-1.3808 -0.55175,-2.046 -0.146218,-0.6648 -0.27224,-1.2946 -0.366756,-1.8332 -0.192803,-1.0795 -0.305361,-1.7969 -0.305361,-1.7969 0,0 -0.08994,0.7015 -0.201958,1.7759 -0.05763,0.5361 -0.109866,1.1705 -0.154027,1.8556 -0.02477,0.4753 -0.04228,0.9767 -0.04497,1.4891 -0.139216,-0.3302 -0.266585,-0.681 -0.375104,-1.0472 -0.155373,-0.5617 -0.263892,-1.1523 -0.319094,-1.7247 -0.04228,-0.5693 -0.05197,-1.1238 -0.0057,-1.5985 0.01,-0.119 0.01751,-0.235 0.02989,-0.3447 0.01562,-0.109 0.0307,-0.2124 0.0447,-0.3096 0.0272,-0.1966 0.05574,-0.3692 0.08913,-0.5081 0.06274,-0.2839 0.09882,-0.4457 0.09882,-0.4457 0,0 -0.08159,0.14 -0.224578,0.3848 -0.07432,0.1217 -0.153219,0.2747 -0.239926,0.4527 -0.04389,0.089 -0.09075,0.1833 -0.140025,0.283 -0.04605,0.1009 -0.08967,0.2089 -0.137601,0.3212 -0.19765,0.4473 -0.371603,0.9909 -0.526707,1.5839 -0.143525,0.5956 -0.244774,1.2443 -0.294052,1.9016 -0.03716,0.6573 -0.02208,1.3209 0.04389,1.9423 0.07728,0.6194 0.182301,1.2 0.325018,1.6865 0.01913,0.069 0.03743,0.1317 0.05547,0.1974 -0.07971,-0.1893 -0.157796,-0.3816 -0.232386,-0.5776 -0.371873,-0.9753 -0.660539,-2.0117 -0.826144,-2.8115 -0.08644,-0.3994 -0.144872,-0.7384 -0.182571,-0.9767 -0.03689,-0.2397 -0.05816,-0.3764 -0.05816,-0.3764 0,0 -0.02908,0.1297 -0.07998,0.357 -0.05062,0.2273 -0.118752,0.5536 -0.184725,0.9487 -0.128984,0.7311 -0.241811,1.701 -0.282203,2.6971 -0.206536,-0.4756 -0.413611,-0.9662 -0.614492,-1.463 -0.608029,-1.5028 -1.156817,-3.0447 -1.534614,-4.2183 -0.191456,-0.5859 -0.341714,-1.0787 -0.444847,-1.4247 -0.102864,-0.3466 -0.161836,-0.5447 -0.161836,-0.5447 0,0 0.0083,0.203 0.02289,0.5584 0.0148,0.3555 0.03905,0.8633 0.07998,1.4724 0.06678,1.0661 0.189841,2.4419 0.364333,3.8531 -0.227271,-0.4009 -0.450502,-0.7623 -0.667809,-1.0623 -0.125753,-0.1852 -0.250159,-0.3484 -0.362717,-0.4898 -0.109597,-0.1427 -0.206267,-0.2642 -0.292705,-0.3603 -0.166414,-0.1925 -0.261469,-0.3026 -0.261469,-0.3026 0,0 0.04874,0.1308 0.1341,0.3597 0.04524,0.1131 0.09155,0.254 0.142179,0.416 0.05386,0.1608 0.110404,0.3431 0.161566,0.5456 0.115521,0.3999 0.210037,0.8779 0.293783,1.3881 0.01967,0.1352 0.03689,0.2731 0.05251,0.4128 -0.07648,-0.3099 -0.162644,-0.6191 -0.258238,-0.922 -0.21219,-0.6406 -0.467466,-1.2516 -0.738359,-1.7966 -0.282742,-0.5423 -0.561714,-1.023 -0.836916,-1.4086 -0.06705,-0.096 -0.131407,-0.1885 -0.192264,-0.276 -0.06517,-0.084 -0.127099,-0.1648 -0.184994,-0.2399 -0.113904,-0.1503 -0.215153,-0.2777 -0.305899,-0.3781 -0.174492,-0.2011 -0.274125,-0.3161 -0.274125,-0.3161 0,0 0.05359,0.1362 0.147564,0.3751 0.04982,0.1176 0.100441,0.265 0.155643,0.4346 0.02854,0.084 0.0587,0.1739 0.09048,0.2685 0.0272,0.096 0.05574,0.1973 0.08536,0.3026 0.125214,0.4193 0.224578,0.9215 0.310747,1.4579 0.0719,0.5124 0.112019,1.0599 0.120636,1.607 -0.04174,-0.063 -0.08294,-0.1276 -0.124945,-0.1912 -0.60749,-0.9144 -1.261835,-1.7713 -1.775079,-2.3839 -0.254467,-0.3075 -0.472851,-0.556 -0.627148,-0.7278 -0.154296,-0.1713 -0.24235,-0.269 -0.24235,-0.269 0,0 0.174761,0.4707 0.398532,1.1864 0.226193,0.7147 0.485777,1.6787 0.686927,2.6516 0.08536,0.4131 0.1753,0.9452 0.173953,1.4447 -0.0017,0.5253 -0.702276,0.6979 -0.938432,0.2286 l -0.0043,-0.01 c -0.09506,-0.1928 -0.191187,-0.3948 -0.287857,-0.6051 -0.259854,-0.5795 -0.50732,-1.2185 -0.727589,-1.8779 -0.21273,-0.6598 -0.394223,-1.3392 -0.535863,-1.9905 -0.132215,-0.6509 -0.239388,-1.2737 -0.296744,-1.8131 -0.03473,-0.2703 -0.05682,-0.5194 -0.0727,-0.741 -0.01913,-0.2222 -0.03312,-0.4172 -0.0377,-0.5774 -0.01372,-0.3226 -0.02154,-0.507 -0.02154,-0.507 0,0 -0.04228,0.1758 -0.116328,0.4836 -0.03905,0.1538 -0.07863,0.342 -0.121445,0.5585 -0.04578,0.2162 -0.09317,0.461 -0.134908,0.73 -0.06705,0.3767 -0.122252,0.8025 -0.169914,1.2573 -0.0447,0.049 -0.09209,0.1015 -0.142717,0.1588 -0.106096,0.1166 -0.223232,0.2502 -0.344676,0.4018 -0.250428,0.2973 -0.517821,0.6643 -0.791407,1.069 -0.199266,0.3038 -0.395839,0.6318 -0.581909,0.9724 -0.157528,-0.3686 -0.314786,-0.7456 -0.468274,-1.1251 -0.257699,-0.6371 -0.50355,-1.2796 -0.731359,-1.8995 0.0032,-0.012 0.0067,-0.025 0.01,-0.036 0.168299,-0.6196 0.319633,-1.132 0.424382,-1.4896 0.105826,-0.3576 0.166144,-0.562 0.166144,-0.562 0,0 -0.105557,0.1812 -0.29055,0.4987 -0.139756,0.2413 -0.326096,0.562 -0.542595,0.9465 -0.214883,-0.604 -0.409033,-1.1746 -0.57033,-1.676 -0.191457,-0.586 -0.341983,-1.079 -0.445116,-1.4247 -0.102864,-0.3469 -0.161567,-0.5448 -0.161567,-0.5448 0,0 0.0083,0.2031 0.02262,0.5585 0.0148,0.3554 0.03905,0.8633 0.07998,1.4724 0.05466,0.8717 0.147564,1.952 0.274933,3.0881 -0.142179,0.2736 -0.287051,0.5574 -0.434884,0.8547 -0.303476,0.6336 -0.612069,1.3167 -0.890232,2.0287 -0.122253,-0.1551 -0.246659,-0.3091 -0.37295,-0.4602 -0.485508,-0.566 -0.998213,-1.0927 -1.497723,-1.5524 -0.03743,-0.033 -0.07432,-0.065 -0.110942,-0.097 -0.04443,-0.068 -0.111751,-0.1696 -0.156181,-0.2372 -0.181494,-0.5617 -0.333636,-1.1097 -0.423036,-1.5869 -0.04955,-0.2291 -0.08428,-0.4413 -0.111212,-0.6312 -0.03016,-0.1901 -0.05332,-0.3576 -0.06543,-0.4954 -0.028,-0.2787 -0.04389,-0.4379 -0.04389,-0.4379 0,0 -0.0342,0.1519 -0.09425,0.4177 -0.03231,0.1327 -0.06247,0.2954 -0.09452,0.4828 -0.03501,0.1871 -0.07028,0.399 -0.09748,0.632 -0.03958,0.2738 -0.06705,0.5789 -0.09075,0.9032 -0.262546,-0.2042 -0.512167,-0.3725 -0.73082,-0.5122 -0.176916,-0.118 -0.332019,-0.2176 -0.465043,-0.293 -0.259853,-0.1537 -0.408494,-0.2416 -0.408494,-0.2416 0,0 0.113096,0.1242 0.310746,0.3412 0.100979,0.1061 0.215961,0.2424 0.345753,0.3999 0.132485,0.1551 0.278164,0.3328 0.427613,0.5345 0.160489,0.2038 0.325287,0.4336 0.492509,0.6802 0.0011,0.5278 0.02935,1.0822 0.08805,1.6378 0.0754,0.6279 0.187956,1.2537 0.328788,1.8351 0.109058,0.4225 0.224308,0.8224 0.346291,1.1832 l -0.107442,0 c -0.02018,-0.1099 -0.0412,-0.2203 -0.06382,-0.3323 -0.130061,-0.6059 -0.311285,-1.2325 -0.525092,-1.8335 -0.222154,-0.601 -0.480661,-1.1746 -0.749669,-1.6873 -0.279241,-0.5103 -0.552558,-0.9638 -0.817258,-1.3294 -0.126022,-0.1853 -0.250159,-0.3482 -0.362987,-0.4898 -0.110404,-0.1441 -0.208152,-0.2666 -0.295128,-0.3633 0.03366,-0.14 0.06759,-0.2738 0.100979,-0.3958 0.05359,-0.2066 0.103133,-0.3872 0.150257,-0.5332 0.09155,-0.2957 0.143794,-0.4645 0.143794,-0.4645 0,0 -0.0964,0.1435 -0.264969,0.3953 -0.08617,0.1247 -0.183917,0.2806 -0.293513,0.4613 -0.112558,0.1791 -0.235618,0.3832 -0.360832,0.6115 -0.261469,0.4513 -0.531016,0.9969 -0.802178,1.5925 -0.195765,0.4454 -0.383721,0.9217 -0.558212,1.4089 -0.475818,-0.7168 -0.979904,-1.3962 -1.423136,-1.9523 0.09667,-0.3352 0.202766,-0.6654 0.317478,-0.9839 0.252046,-0.6603 0.520785,-1.2829 0.799489,-1.7937 0.06839,-0.1287 0.132482,-0.2545 0.197648,-0.3713 0.0684,-0.115 0.133023,-0.2243 0.193881,-0.3269 0.121175,-0.2074 0.231309,-0.3872 0.330404,-0.5291 0.194688,-0.2898 0.305899,-0.4554 0.305899,-0.4554 0,0 -0.147295,0.1298 -0.405263,0.357 -0.131407,0.1118 -0.282202,0.2561 -0.452387,0.425 -0.08563,0.084 -0.176913,0.1737 -0.273047,0.2679 -0.09182,0.099 -0.188227,0.202 -0.288938,0.31 -0.408224,0.4289 -0.839338,0.9694 -1.277182,1.5685 -0.110676,0.1565 -0.22,0.318 -0.32798,0.4833 -0.03473,-0.039 -0.06894,-0.078 -0.09909,-0.1112 -0.154028,-0.1709 -0.242083,-0.2687 -0.242083,-0.2687 0,0 0.08294,0.2243 0.206269,0.5932 -0.261739,0.4133 -0.514861,0.8463 -0.749402,1.2928 -0.107173,0.2122 -0.208691,0.4268 -0.307244,0.6423 -0.148375,-0.502 -0.277628,-1.0085 -0.38426,-1.4991 -0.132486,-0.6509 -0.23939,-1.2737 -0.296746,-1.8131 -0.03473,-0.2703 -0.05682,-0.5194 -0.07297,-0.7413 -0.01885,-0.2222 -0.03287,-0.4168 -0.0377,-0.577 -0.01348,-0.3227 -0.02125,-0.5071 -0.02125,-0.5071 0,0 -0.04228,0.1758 -0.116328,0.4836 -0.03905,0.1538 -0.07863,0.342 -0.121446,0.5585 -0.04577,0.2162 -0.09344,0.461 -0.135178,0.73 -0.09532,0.5364 -0.168027,1.1684 -0.226193,1.8491 -0.02154,0.2925 -0.03608,0.5951 -0.04605,0.9019 -0.286241,-0.4085 -0.584062,-0.7955 -0.878923,-1.1485 -0.09909,-0.1155 -0.196572,-0.2292 -0.291896,-0.3404 -0.09855,-0.1074 -0.194956,-0.2127 -0.288664,-0.315 -0.09156,-0.1029 -0.189304,-0.1969 -0.278703,-0.2898 -0.09048,-0.092 -0.178533,-0.1855 -0.25743,-0.2517 -0.160489,-0.1409 -0.311556,-0.237 -0.428959,-0.2833 -0.119561,-0.044 -0.180956,-0.028 -0.260122,-0.027 -0.07163,0.01 -0.123332,0.031 -0.15645,0.047 -0.03179,0.019 -0.04874,0.029 -0.04874,0.029 0,0 0.01373,0 0.03958,0 0.02559,0.01 0.06301,0.016 0.103944,0.043 0.01724,0.012 0.04739,0.034 0.0552,0.047 0.01724,0.021 0.03581,0.044 0.05574,0.068 0.05305,0.07 0.129521,0.1837 0.210845,0.3412 0.04578,0.094 0.09371,0.1917 0.143256,0.293 0.0517,0.1091 0.109324,0.2192 0.15968,0.3374 0.05224,0.1169 0.105557,0.237 0.16049,0.3598 0.05062,0.1241 0.102596,0.2512 0.155375,0.3804 0.204651,0.5187 0.394489,1.0815 0.550943,1.6526 0.237232,0.8445 0.424378,1.7342 0.47339,2.6107 -0.749401,-0.9937 -1.269376,-2.269 -2.165801,-3.2597 0.3576,0.8375 0.610181,1.7199 0.749398,2.6199 0.08375,0.5404 -0.110672,1.3434 -0.758287,1.453 -0.944088,0.1597 -0.685042,-0.995 -0.661346,-1.6792 0.01968,-0.5744 0.07405,-1.1577 0.155912,-1.7089 0.08913,-0.5474 0.19415,-1.0679 0.316134,-1.5074 0.05628,-0.2227 0.116597,-0.4244 0.173952,-0.6029 0.05493,-0.1801 0.105557,-0.3371 0.152949,-0.464 0.09298,-0.2572 0.145754,-0.4042 0.145754,-0.4042 0,0 -0.09478,0.1183 -0.260928,0.3256 -0.08482,0.1026 -0.181494,0.2316 -0.290553,0.3813 -0.111478,0.1484 -0.233999,0.318 -0.359754,0.5087 -0.2612,0.3756 -0.535055,0.8342 -0.812951,1.3366 -0.271162,0.5057 -0.532631,1.0619 -0.765555,1.6324 -0.04281,0.1086 -0.08321,0.2179 -0.12387,0.3269 -0.0859,-0.3621 -0.16345,-0.7359 -0.228885,-1.117 -0.108786,-0.6831 -0.177722,-1.3832 -0.205458,-2.0508 -0.01753,-0.6651 -0.01075,-1.3006 0.03635,-1.844 0.0167,-0.2738 0.04362,-0.524 0.07217,-0.7461 0.02477,-0.2236 0.05009,-0.419 0.07863,-0.5779 0.05305,-0.3221 0.08321,-0.5057 0.08321,-0.5057 0,0 -0.07755,0.1653 -0.213268,0.455 -0.07055,0.1441 -0.147027,0.3229 -0.23158,0.5292 -0.08832,0.2054 -0.18316,0.4389 -0.274986,0.6982 -0.197325,0.5146 -0.383503,1.1302 -0.56023,1.7983 -0.167357,0.6702 -0.306413,1.3962 -0.405909,2.1305 -0.08983,0.7352 -0.139998,1.4775 -0.148106,2.1769 7.17e-4,0.3217 0.007,0.633 0.01882,0.9314 -0.100034,-0.4349 -0.194688,-0.9207 -0.283897,-1.4428 -0.108761,-0.6697 -0.193856,-1.3949 -0.250752,-2.1313 -0.05027,-0.7352 -0.06902,-1.4806 -0.0586,-2.1858 0.01831,-0.7028 0.05292,-1.3684 0.1135,-1.9372 0.02505,-0.2859 0.05679,-0.5474 0.08814,-0.7793 0.02896,-0.2326 0.0566,-0.4362 0.08509,-0.6023 0.05386,-0.3348 0.08469,-0.5262 0.08469,-0.5262 0,0 -0.07825,0.1734 -0.215315,0.4771 -0.07047,0.1511 -0.149257,0.3375 -0.237394,0.5523 -0.09088,0.2141 -0.189867,0.457 -0.289284,0.7255 -0.209096,0.5334 -0.42021,1.1678 -0.630055,1.8548 -0.202795,0.6888 -0.390131,1.4331 -0.548549,2.1857 -0.151063,0.754 -0.273072,1.5152 -0.35889,2.2342 -0.02588,0.2367 -0.04817,0.4661 -0.0688,0.6915 -0.05143,-0.2044 -0.105933,-0.4112 -0.165554,-0.6207 -0.01527,-0.052 -0.03359,-0.1039 -0.04955,-0.1556 -0.02864,-0.3811 -0.04998,-0.7718 -0.06164,-1.1674 -0.01412,-0.6726 0,-1.3536 0.03818,-1.9972 0.04491,-0.6409 0.102758,-1.2478 0.179447,-1.7651 0.03384,-0.2604 0.07268,-0.4982 0.109812,-0.7088 0.03502,-0.2119 0.06773,-0.3968 0.09971,-0.5476 0.0612,-0.3043 0.09624,-0.478 0.09624,-0.478 0,0 -0.08129,0.1529 -0.223713,0.4209 -0.0729,0.1335 -0.15559,0.2983 -0.24868,0.4881 -0.0953,0.1894 -0.199856,0.4042 -0.306707,0.642 -0.222476,0.4723 -0.454325,1.0359 -0.688866,1.6469 -0.07122,0.1909 -0.140966,0.3881 -0.209766,0.5876 -0.216878,-0.3945 -0.442935,-0.7728 -0.673382,-1.1221 -0.405723,-0.5884 -0.798492,-1.1086 -1.173891,-1.519 -0.09236,-0.1031 -0.17767,-0.2033 -0.263273,-0.2949 -0.08784,-0.089 -0.171368,-0.1739 -0.24962,-0.2536 -0.06113,-0.063 -0.117084,-0.119 -0.172501,-0.174 0.06185,-0.4809 0.131167,-0.937 0.212057,-1.345 0.05795,-0.3312 0.123059,-0.6328 0.185128,-0.8999 0.05867,-0.2685 0.113177,-0.5028 0.165981,-0.6932 0.101087,-0.3842 0.158823,-0.6039 0.158823,-0.6039 0,0 -0.104023,0.1987 -0.286215,0.5466 -0.09371,0.1731 -0.198272,0.3875 -0.315352,0.6349 -0.120529,0.2462 -0.251911,0.5262 -0.383615,0.837 -0.277273,0.6158 -0.556327,1.3534 -0.832847,2.1537 -0.247197,0.7434 -0.4742,1.5459 -0.669937,2.3615 -0.03577,-0.1311 -0.07174,-0.2617 -0.108977,-0.3885 -0.202064,-0.6501 -0.406554,-1.2396 -0.615568,-1.7299 -0.0978,-0.2464 -0.197217,-0.468 -0.288398,-0.6621 -0.08784,-0.1947 -0.166518,-0.3622 -0.238146,-0.4979 -0.137683,-0.2709 -0.216369,-0.4255 -0.216369,-0.4255 0,0 0.02925,0.1664 0.08046,0.4572 0.02821,0.1449 0.05353,0.3224 0.08024,0.5262 0.03,0.203 0.05965,0.4325 0.08121,0.6842 0.05639,0.5014 0.08132,1.0901 0.09067,1.7175 2.15e-4,0.6285 -0.03312,1.2968 -0.09783,1.9598 -0.04659,0.4177 -0.106851,0.831 -0.176379,1.2328 -3.58e-4,0 -0.0011,0 -0.0014,-0.01 -0.245172,-0.8 -0.54695,-1.6329 -0.880288,-2.442 -0.342091,-0.8076 -0.719591,-1.5896 -1.100886,-2.2997 -0.391938,-0.7066 -0.770703,-1.3466 -1.127819,-1.8731 -0.171881,-0.266 -0.338696,-0.5033 -0.489333,-0.7109 -0.147454,-0.2092 -0.277678,-0.3888 -0.391715,-0.5329 -0.222046,-0.2889 -0.349012,-0.4542 -0.349012,-0.4542 0,0 0.08143,0.1877 0.223849,0.5162 0.07373,0.1626 0.154515,0.3643 0.244559,0.5964 0.09341,0.2308 0.19439,0.4925 0.293567,0.7823 0.211734,0.5738 0.417059,1.2578 0.61756,1.9929 0.191214,0.7381 0.359328,1.5327 0.492699,2.3314 0.123679,0.8009 0.212458,1.6041 0.261685,2.3584 0.0343,0.6538 0,9.4874 0,9.4874 l 187.022166,0 c 0,0 -0.0342,-8.8336 0,-9.4874 0.0493,-0.7543 0.13814,-1.5575 0.26174,-2.3584 0.13356,-0.7987 0.30159,-1.5933 0.49278,-2.3314 0.20062,-0.7351 0.4058,-1.4191 0.61746,-1.9929 0.0994,-0.2898 0.20033,-0.5515 0.29378,-0.7823 0.0899,-0.2321 0.17072,-0.4338 0.2445,-0.5964 0.14245,-0.3285 0.22377,-0.5162 0.22377,-0.5162 0,0 -0.12683,0.1653 -0.34898,0.4543"
       style="fill:#a2d847;fill-opacity:1;fill-rule:nonzero;stroke:none"
       id="path146"
       inkscape:connector-curvature="0" />
    <path
       d="m 43.082038,1058.9412 c -0.06585,0.01 -0.100513,0.01 -0.100513,0.01 0,0 0.0357,0 0.100513,-0.01"
       style="fill:#6e472a;fill-opacity:1;fill-rule:nonzero;stroke:none"
       id="path90"
       inkscape:connector-curvature="0" />
    <path
       d="m 71.38549,1021.057 c 0,0 8.314745,-3.1977 10.71273,-5.9159 2.398417,-2.7186 11.780234,-20.40221 11.780234,-20.40221 l -0.320165,-0.79934 c 0,0 -8.269688,13.38155 -11.528087,18.14335 l -2.541821,-10.6158 -0.959627,0.7759 2.188296,11.539 c -1.384202,1.0368 -8.127586,3.9174 -10.930216,3.9174 -2.878015,0 -7.514985,-5.1747 -7.355119,-14.9789 l -0.639462,0 c 0,0 -2.515393,10.66 3.197745,16.2578 0,0 -9.185559,-1.1277 -11.903708,-2.8863 -2.717889,-1.7589 -8.082616,-9.5853 -8.082616,-9.5853 l -0.479596,0.7997 c 0,0 4.47693,8.4742 6.875174,9.9135 2.398419,1.4387 9.273508,4.6365 9.273508,4.6365 0,0 1.576995,9.0763 -0.531586,20.2526 -1.598657,8.4738 -12.513147,11.7607 -13.110888,11.8322 0.996279,-0.096 26.701633,-2.8775 37.414363,0.7998 0,0 -8.953775,-6.7161 -10.552865,-11.9921 -1.598656,-5.2764 -3.625353,-16.2556 -2.506294,-21.6919"
       style="fill:#6e472a;fill-opacity:1;fill-rule:nonzero;stroke:none"
       id="path92"
       inkscape:connector-curvature="0" />
    <path
       d="m 61.660115,1021.6432 c 0,0 2.958163,0.1598 4.876551,-0.3999 0,0 0.799761,20.4663 0.48003,23.424 -0.319731,2.9586 -3.837641,6.9557 -3.837641,6.9557 0,0 -6.475643,0.1598 -9.033927,0.7989 0,0 5.836614,-2.6376 6.875524,-9.0336 1.039343,-6.3954 1.119492,-18.9468 0.639463,-21.7451"
       style="fill:#7f553d;fill-opacity:1;fill-rule:nonzero;stroke:none"
       id="path94"
       inkscape:connector-curvature="0" />
    <path
       d="m 31.72066,991.78159 c 0,0 -9.466991,-5.11656 -7.122078,-20.25269 2.345432,-15.13611 21.000451,-15.77601 21.000451,-15.77601 0,0 -1.81298,-14.49622 12.470385,-18.54701 14.283497,-4.05079 29.136704,6.74685 26.33234,20.89214 0,0 13.320402,3.41134 13.533557,14.2835 0.213154,10.87304 -14.49665,16.15033 -14.49665,16.15033 l -51.718005,3.24974"
       style="fill:#82b71c;fill-opacity:1;fill-rule:nonzero;stroke:none"
       id="path96"
       inkscape:connector-curvature="0" />
    <path
       d="m 30.248294,967.15491 c 0,0 3.091255,-7.56828 17.587861,-9.91297 0,0 0.285679,-11.44924 8.280217,-15.88259 7.016325,-3.89093 14.530876,-0.85261 15.490071,0.9592 0.959193,1.81181 -8.862362,-0.11481 -12.310953,2.02496 -7.301832,4.53039 -3.471989,12.4184 -7.888439,15.93587 -4.416537,3.51791 -9.273939,2.13155 -15.509175,5.80934 -4.353414,2.56738 -6.928811,4.37053 -5.649582,1.06619"
       style="fill:#90c125;fill-opacity:1;fill-rule:nonzero;stroke:none"
       id="path98"
       inkscape:connector-curvature="0" />
    <path
       d="m 92.062744,972.52927 c 5.86434,-2.5583 20.254846,0.21402 16.736936,16.41589 0,0 -3.33248,11.88764 -16.416772,6.92837 0,0 -5.967883,7.03457 -15.241822,3.51747 0,0 -12.151521,7.0351 -20.146103,-4.79681 -7.994322,-11.83179 -1.356908,-29.18306 13.711619,-30.42084 15.06896,-1.23733 21.356142,8.35592 21.356142,8.35592"
       style="fill:#96c639;fill-opacity:1;fill-rule:nonzero;stroke:none"
       id="path100"
       inkscape:connector-curvature="0" />
    <path
       d="m 106.13525,980.52428 c -0.53375,-1.59911 -4.1578,-7.46171 -14.497515,-5.96963 0,0 -4.796402,-5.54243 -11.937932,-7.67442 -7.141965,-2.1324 -13.644033,0 -14.17692,2.34469 -0.533318,2.34515 7.718608,0.56627 11.085318,1.49254 9.271339,2.55091 10.126555,7.35469 13.750609,7.78141 3.624054,0.4263 7.675283,0.53334 10.76602,2.02541 3.0916,1.49208 5.75646,2.23854 5.01042,0"
       style="fill:#a9d146;fill-opacity:1;fill-rule:nonzero;stroke:none"
       id="path102"
       inkscape:connector-curvature="0" />
    <path
       d="m 42.980486,984.10327 c -5.863949,-2.55827 -20.253978,0.2136 -16.736458,16.41593 0,0 3.332267,11.8886 16.416597,6.9284 0,0 5.96771,7.0354 15.241563,3.5179 0,0 12.151955,7.035 20.146103,-4.7968 7.994581,-11.8323 1.357341,-29.18358 -13.711186,-30.42132 -15.068875,-1.23734 -21.356619,8.35589 -21.356619,8.35589"
       style="fill:#a9db52;fill-opacity:1;fill-rule:nonzero;stroke:none"
       id="path104"
       inkscape:connector-curvature="0" />
    <path
       d="m 28.908628,992.09827 c 0.533102,-1.59906 4.157416,-7.46167 14.496824,-5.96959 0,0 4.796748,-5.54288 11.938452,-7.67487 7.141966,-2.13154 13.644468,0 14.17692,2.34515 0.533319,2.34511 -7.756299,0.44017 -11.085751,1.4925 -9.271253,2.9313 -10.126253,7.35468 -13.750394,7.78144 -3.62414,0.42631 -7.674936,0.5333 -10.766191,2.02537 -3.091212,1.49209 -5.755813,2.23857 -5.00986,0"
       style="fill:#b6e55c;fill-opacity:1;fill-rule:nonzero;stroke:none"
       id="path106"
       inkscape:connector-curvature="0" />
  </g>
</svg>
