<?xml version="1.0" encoding="UTF-8" standalone="no"?>
<!-- Created with Inkscape (http://www.inkscape.org/) -->

<svg
   xmlns:dc="http://purl.org/dc/elements/1.1/"
   xmlns:cc="http://creativecommons.org/ns#"
   xmlns:rdf="http://www.w3.org/1999/02/22-rdf-syntax-ns#"
   xmlns:svg="http://www.w3.org/2000/svg"
   xmlns="http://www.w3.org/2000/svg"
   xmlns:sodipodi="http://sodipodi.sourceforge.net/DTD/sodipodi-0.dtd"
   xmlns:inkscape="http://www.inkscape.org/namespaces/inkscape"
   width="256"
   height="256"
   viewBox="0 0 256 256"
   id="svg4501"
   version="1.1"
   inkscape:version="0.91 r13725"
   sodipodi:docname="grundo_herbo_arko.svg"
   inkscape:export-filename="/home/hsn6/mialudo/tileset/grundo_herbo_arko.png"
   inkscape:export-xdpi="90"
   inkscape:export-ydpi="90">
  <defs
     id="defs4503" />
  <sodipodi:namedview
     id="base"
     pagecolor="#ffffff"
     bordercolor="#666666"
     borderopacity="1.0"
     inkscape:pageopacity="0.0"
     inkscape:pageshadow="2"
     inkscape:zoom="0.35"
     inkscape:cx="41.81274"
     inkscape:cy="-243.21984"
     inkscape:document-units="px"
     inkscape:current-layer="g4183"
     showgrid="false"
     units="px"
     inkscape:window-width="1024"
     inkscape:window-height="744"
     inkscape:window-x="0"
     inkscape:window-y="24"
     inkscape:window-maximized="1"
     showguides="true"
     inkscape:guide-bbox="true">
    <sodipodi:guide
       position="0,61.160714"
       orientation="1,0"
       id="guide4216" />
    <sodipodi:guide
       position="37.678571,-0.35714286"
       orientation="0,1"
       id="guide4218" />
    <sodipodi:guide
       position="255.17857,135.17857"
       orientation="1,0"
       id="guide4220" />
  </sodipodi:namedview>
  <metadata
     id="metadata4506">
    <rdf:RDF>
      <cc:Work
         rdf:about="">
        <dc:format>image/svg+xml</dc:format>
        <dc:type
           rdf:resource="http://purl.org/dc/dcmitype/StillImage" />
        <dc:title />
      </cc:Work>
    </rdf:RDF>
  </metadata>
  <g
     inkscape:label="Tavolo 1"
     inkscape:groupmode="layer"
     id="layer1"
     transform="translate(0,-796.36216)">
    <g
       id="g4183"
       transform="matrix(0.99828357,0.05856546,-0.05856546,0.99828357,61.407432,5.7886059)"
       inkscape:transform-center-x="-225.91853"
       inkscape:transform-center-y="-145.60347">
      <path
         inkscape:transform-center-y="-150.17933"
         inkscape:transform-center-x="-225.11412"
         inkscape:connector-curvature="0"
         id="path16"
         style="fill:#c49a6c;fill-opacity:1;fill-rule:nonzero;stroke:none"
         d="m 137.93357,931.02403 -155.930478,90.02647 18.74249958,32.463 255.80613842,-19.4837 -7.42782,-128.33525 219.619,-122.37943 -18.7425,-32.46296 -312.06684,180.17187"
         sodipodi:nodetypes="cccccccc" />
      <path
         inkscape:transform-center-y="-51.448474"
         inkscape:transform-center-x="-66.149992"
         inkscape:connector-curvature="0"
         id="path18"
         style="fill:#a97c50;fill-opacity:1;fill-rule:nonzero;stroke:none"
         d="m 72.413933,1001.4057 c -0.375837,4.589 -3.369814,8.0901 -6.685943,7.8179 -3.316616,-0.2718 -5.700139,-4.2117 -5.324148,-8.8007 0.376215,-4.59066 3.369813,-8.09009 6.685725,-7.81927 3.316563,0.27196 5.700252,4.21313 5.324366,8.80207" />
      <path
         inkscape:transform-center-y="-20.886266"
         inkscape:transform-center-x="-19.229672"
         inkscape:connector-curvature="0"
         id="path20"
         style="fill:#a97c50;fill-opacity:1;fill-rule:nonzero;stroke:none"
         d="m 21.297564,1026.4808 c 3.544393,1.2836 5.607565,4.5611 4.6091,7.32 -1.000422,2.7584 -4.683265,3.9538 -8.228091,2.6705 -3.544127,-1.2851 -5.607732,-4.5624 -4.607318,-7.3209 0.998474,-2.7588 4.681966,-3.9531 8.226309,-2.6696" />
      <path
         inkscape:transform-center-y="-24.224836"
         inkscape:transform-center-x="-31.721734"
         inkscape:connector-curvature="0"
         id="path22"
         style="fill:#a97c50;fill-opacity:1;fill-rule:nonzero;stroke:none"
         d="m 32.953008,1025.4529 c 1.905596,0.6911 3.012866,2.4507 2.476003,3.934 -0.536494,1.4818 -2.515651,2.1251 -4.420598,1.4351 -1.904401,-0.6903 -3.013362,-2.4518 -2.47617,-3.9354 0.537639,-1.481 2.516355,-2.124 4.420765,-1.4337" />
      <path
         inkscape:transform-center-y="-41.280359"
         inkscape:transform-center-x="-57.171201"
         inkscape:connector-curvature="0"
         id="path24"
         style="fill:#a97c50;fill-opacity:1;fill-rule:nonzero;stroke:none"
         d="m 60.285122,1011.0727 c 0.0064,2.0257 -1.26614,3.6713 -2.842226,3.6777 -1.577759,0 -2.860639,-1.6336 -2.867847,-3.6588 -0.0064,-2.0257 1.26587,-3.6724 2.843525,-3.6784 1.576469,0 2.860648,1.6336 2.866548,3.6595" />
      <path
         inkscape:transform-center-y="-63.591449"
         inkscape:transform-center-x="-102.78623"
         inkscape:connector-curvature="0"
         id="path26"
         style="fill:#a97c50;fill-opacity:1;fill-rule:nonzero;stroke:none"
         d="m 105.90037,988.76091 c 0.006,2.02579 -1.26587,3.67245 -2.84201,3.67749 -1.57727,0.006 -2.86119,-1.63322 -2.8685,-3.65838 -0.006,-2.02579 1.26647,-3.67141 2.84374,-3.677 1.57614,-0.005 2.86054,1.6321 2.86677,3.65789" />
      <path
         inkscape:transform-center-y="-66.397"
         inkscape:transform-center-x="-92.562974"
         sodipodi:nodetypes="ccccc"
         inkscape:connector-curvature="0"
         id="path28"
         style="fill:#a97c50;fill-opacity:1;fill-rule:nonzero;stroke:none"
         d="m 97.017421,986.53519 c -0.405986,2.97681 -2.610137,5.13411 -4.927884,4.81965 -2.317797,-0.31454 -3.867392,-2.98352 -3.463571,-5.95908 0.405987,-2.97681 2.61117,-5.13482 4.928967,-4.82027 2.315582,0.3157 3.867825,2.98176 3.462445,5.95973" />
      <path
         inkscape:transform-center-y="-79.458463"
         inkscape:transform-center-x="-120.67896"
         inkscape:connector-curvature="0"
         id="path30"
         style="fill:#a97c50;fill-opacity:1;fill-rule:nonzero;stroke:none"
         d="m 121.84992,967.95635 c 3.5111,0.64888 5.94635,3.38688 5.44219,6.11864 -0.50351,2.7329 -3.75609,4.42175 -7.2636,3.77657 -3.51109,-0.64889 -5.94912,-3.38667 -5.44501,-6.11852 0.50308,-2.73115 3.7549,-4.42383 7.26642,-3.77669" />
      <path
         inkscape:transform-center-y="-83.036508"
         inkscape:transform-center-x="-134.08016"
         inkscape:connector-curvature="0"
         id="path32"
         style="fill:#a97c50;fill-opacity:1;fill-rule:nonzero;stroke:none"
         d="m 134.91717,966.18697 c 2.22781,0.41119 3.77359,2.14856 3.45367,3.88195 -0.31926,1.73451 -2.38419,2.80545 -4.60967,2.39581 -2.22781,-0.41118 -3.77467,-2.14793 -3.45368,-3.88194 0.31879,-1.73285 2.38186,-2.807 4.60968,-2.39582" />
      <path
         inkscape:transform-center-y="-116.48157"
         inkscape:transform-center-x="-140.48526"
         inkscape:connector-curvature="0"
         id="path34"
         style="fill:#8dc63f;fill-opacity:1;fill-rule:nonzero;stroke:none"
         d="m 140.79607,935.98203 0.013,-0.008 -0.12984,-0.19489 0.11685,0.20239" />
      <path
         inkscape:transform-center-y="-141.53457"
         inkscape:transform-center-x="-222.18391"
         inkscape:connector-curvature="0"
         id="path36"
         style="fill:#a97c50;fill-opacity:1;fill-rule:nonzero;stroke:none"
         d="m 228.44682,911.32008 c -0.37584,4.58903 -3.36797,8.089 -6.68562,7.81768 -3.31651,-0.27187 -5.69852,-4.21263 -5.32263,-8.80157 0.37524,-4.59008 3.36905,-8.08964 6.68496,-7.81881 3.31657,0.27196 5.70025,4.21313 5.32329,8.8027" />
      <path
         inkscape:transform-center-y="-110.97246"
         inkscape:transform-center-x="-175.26362"
         inkscape:connector-curvature="0"
         id="path38"
         style="fill:#a97c50;fill-opacity:1;fill-rule:nonzero;stroke:none"
         d="m 177.33208,936.39425 c 3.54417,1.2837 5.60691,4.56146 4.60768,7.32075 -0.99987,2.75816 -4.68304,3.95372 -8.22722,2.67003 -3.54478,-1.28473 -5.60752,-4.5625 -4.60656,-7.32129 0.99815,-2.75866 4.68089,-3.95247 8.2261,-2.66949" />
      <path
         inkscape:transform-center-y="-114.31113"
         inkscape:transform-center-x="-187.7557"
         inkscape:connector-curvature="0"
         id="path40"
         style="fill:#a97c50;fill-opacity:1;fill-rule:nonzero;stroke:none"
         d="m 188.98719,935.3665 c 1.90473,0.69159 3.01276,2.45076 2.47622,3.93394 -0.53714,1.48214 -2.51576,2.12508 -4.42092,1.43525 -1.90408,-0.69047 -3.01336,-2.4518 -2.47682,-3.93498 0.53883,-1.48173 2.51636,-2.12405 4.42152,-1.43421" />
      <path
         inkscape:transform-center-y="-131.36605"
         inkscape:transform-center-x="-213.20539"
         inkscape:connector-curvature="0"
         id="path42"
         style="fill:#a97c50;fill-opacity:1;fill-rule:nonzero;stroke:none"
         d="m 216.31898,920.98656 c 0.006,2.02579 -1.26538,3.67078 -2.84309,3.67812 -1.57679,0.004 -2.8601,-1.63384 -2.86633,-3.65963 -0.006,-2.02579 1.26587,-3.67245 2.84201,-3.6775 1.57787,-0.005 2.86227,1.63259 2.86741,3.65901" />
      <path
         inkscape:transform-center-y="-153.67739"
         inkscape:transform-center-x="-258.8202"
         inkscape:connector-curvature="0"
         id="path44"
         style="fill:#a97c50;fill-opacity:1;fill-rule:nonzero;stroke:none"
         d="m 261.93433,898.67466 c 0.006,2.02579 -1.26479,3.67182 -2.84309,3.67812 -1.57619,0.005 -2.8601,-1.63385 -2.86742,-3.65901 -0.005,-2.02641 1.26647,-3.67141 2.84375,-3.677 1.57722,-0.006 2.86053,1.6321 2.86676,3.65789" />
      <path
         inkscape:transform-center-y="-161.14495"
         inkscape:transform-center-x="-250.9571"
         inkscape:connector-curvature="0"
         id="path46"
         style="fill:#a97c50;fill-opacity:1;fill-rule:nonzero;stroke:none"
         d="m 255.41164,891.78703 c -0.40598,2.97681 -2.61013,5.13411 -4.92788,4.81966 -2.31671,-0.31517 -3.86739,-2.98352 -3.46357,-5.95908 0.40599,-2.97681 2.61225,-5.13545 4.92788,-4.81966 2.31775,0.31446 3.86783,2.98177 3.46357,5.95908" />
      <path
         inkscape:transform-center-y="-169.54491"
         inkscape:transform-center-x="-276.7132"
         inkscape:connector-curvature="0"
         id="path48"
         style="fill:#a97c50;fill-opacity:1;fill-rule:nonzero;stroke:none"
         d="m 277.88497,877.86947 c 3.51001,0.64951 5.94418,3.38813 5.44219,6.11865 -0.50351,2.73289 -3.75718,4.42237 -7.26469,3.77719 -3.51217,-0.64826 -5.94912,-3.38667 -5.445,-6.11852 0.50199,-2.73052 3.75489,-4.42383 7.2675,-3.77732" />
      <path
         inkscape:transform-center-y="-173.12303"
         inkscape:transform-center-x="-290.11359"
         inkscape:connector-curvature="0"
         id="path50"
         style="fill:#a97c50;fill-opacity:1;fill-rule:nonzero;stroke:none"
         d="m 290.95221,876.1001 c 2.22565,0.41243 3.77143,2.1498 3.45151,3.88319 -0.31818,1.73389 -2.38311,2.80483 -4.60859,2.39519 -2.22781,-0.41118 -3.77467,-2.14793 -3.45367,-3.88194 0.3177,-1.73223 2.38294,-2.80762 4.61075,-2.39644" />
      <path
         inkscape:transform-center-y="-206.56707"
         inkscape:transform-center-x="-296.51922"
         inkscape:connector-curvature="0"
         id="path52"
         style="fill:#8dc63f;fill-opacity:1;fill-rule:nonzero;stroke:none"
         d="m 296.83003,845.89578 0.013,-0.007 -0.12984,-0.19489 0.11685,0.20239" />
      <path
         inkscape:transform-center-y="-154.61063"
         inkscape:transform-center-x="-222.60852"
         inkscape:export-ydpi="90"
         inkscape:export-xdpi="90"
         sodipodi:nodetypes="ccccccccccccccccccccccccccccccccccccccccccccccccccccc"
         inkscape:connector-curvature="0"
         id="path54"
         style="fill:#a97c50;fill-opacity:1;fill-rule:nonzero;stroke:none"
         d="m 293.96753,840.93778 -311.964438,180.11272 13.6256496,23.6004 c 1.145577,-0.5431 3.2520379,-3.5957 4.4104013,-4.2631 3.4370587,-1.9728 6.4119243,-1.5624 8.4405507,-5.0877 2.2412404,-3.8935 0.1783328,-8.2176 4.8734754,-10.6614 3.208349,-1.6705 6.967379,-0.6811 10.375063,-1.4303 4.163877,-0.916 7.926568,-2.7953 9.856135,-6.457 1.639896,-3.1118 1.310545,-6.9068 4.249566,-9.3398 2.636153,-2.183 6.035261,1.5082 9.406605,-0.2737 6.925035,-3.646 8.328066,-8.3459 9.738337,-10.452 3.182809,-4.75171 6.390541,-7.87826 11.358965,-8.60769 6.344011,-0.93185 6.545823,9.74519 11.592905,6.062 6.783816,-4.9501 5.677081,-13.3313 11.094742,-16.75514 6.307469,-3.98514 6.252958,7.69969 11.522443,6.36919 11.3829,-4.52995 9.00441,-17.53136 14.11487,-18.67478 4.16222,-0.93082 9.0893,1.10314 13.05888,-1.13385 2.22403,-1.25286 1.62867,-3.60906 9.70527,-7.29497 3.63265,-1.58058 4.6436,2.15294 12.23787,-1.8434 1.1446,-0.54249 2.54554,-1.11599 3.70445,-1.7837 3.43663,-1.97259 7.11501,-4.28395 9.14407,-7.80951 2.24211,-3.89406 0.17876,-8.21787 4.87456,-10.66202 3.20835,-1.67048 6.96673,-0.68077 10.37376,-1.42961 4.16474,-0.91646 7.92679,-2.79541 9.85581,-6.45675 1.64109,-3.11254 1.31087,-6.907 4.25054,-9.34034 2.6355,-2.18267 6.03515,1.50819 9.40704,-0.27403 6.92374,-3.64524 8.32785,-8.34574 9.73757,-10.45153 3.18195,-4.75121 6.39076,-7.87838 11.35919,-8.60782 7.23512,-2.10543 16.67682,3.1044 22.54764,-1.6193 6.30747,-3.98515 11.13316,-13.68383 16.40156,-15.0137 5.01954,-1.2684 4.26529,-5.2223 9.37467,-6.36509 4.1633,-0.93145 9.09039,1.10251 13.05996,-1.13448 2.22295,-1.25224 1.62759,-3.60843 9.70636,-7.2956 3.63048,-1.57933 4.64251,2.15357 12.23678,-1.84277 l -0.0587,-0.10176 c 1.28386,-0.53628 2.92857,-1.20007 3.7632,-1.68194 3.43663,-1.97259 7.11609,-4.28457 9.14407,-7.80951 2.24102,-3.89343 0.17877,-8.21787 4.87456,-10.66202 3.20727,-1.66985 6.96673,-0.68077 10.37376,-1.42961 4.16366,-0.91583 7.92679,-2.79541 9.85689,-6.45737 1.63893,-3.1113 1.30979,-6.90638 4.24838,-9.33909 2.63659,-2.1833 6.03623,1.50756 9.40704,-0.27403 6.9259,-3.64649 8.33001,-8.347 9.73866,-10.45216 3.18194,-4.75121 6.39075,-7.87838 11.35918,-8.60782 6.34401,-0.93185 6.54582,9.7452 11.59182,6.06263 6.78381,-4.95009 6.64103,-15.9499 12.05761,-19.37311 6.30747,-3.98514 10.03137,-1.99265 15.29977,-3.32252 5.01954,-1.2684 4.26421,-5.22167 9.37467,-6.36509 4.16331,-0.93145 9.09039,1.10251 13.05997,-1.13448 2.22294,-1.25224 1.6265,-3.60781 9.70527,-7.29497 3.63156,-1.57996 4.64359,2.15294 12.23678,-1.84278 l -13.73125,-23.78322 -156.03288,90.08562" />
      <path
         inkscape:transform-center-y="-162.92425"
         inkscape:transform-center-x="-217.75626"
         inkscape:connector-curvature="0"
         id="path56"
         style="fill:#7e4a36;fill-opacity:1;fill-rule:nonzero;stroke:none"
         d="M -13.970658,1028.0242 454.02731,757.82545 450.00096,750.85161 6.1567179,1007.1052 l -6.13870703,4.7049 -18.01501887,9.2403 z"
         sodipodi:nodetypes="ccccccc" />
      <path
         inkscape:transform-center-y="-231.62081"
         inkscape:transform-center-x="-378.21776"
         inkscape:connector-curvature="0"
         id="path58"
         style="fill:#a97c50;fill-opacity:1;fill-rule:nonzero;stroke:none"
         d="m 384.48186,821.2332 c -0.37692,4.58966 -3.36905,8.08963 -6.6867,7.81831 -3.31651,-0.27187 -5.6996,-4.212 -5.32371,-8.80095 0.37632,-4.5907 3.37013,-8.09026 6.68605,-7.81943 3.31656,0.27196 5.70025,4.21313 5.32436,8.80207" />
      <path
         inkscape:transform-center-y="-201.0586"
         inkscape:transform-center-x="-331.29757"
         inkscape:connector-curvature="0"
         id="path60"
         style="fill:#a97c50;fill-opacity:1;fill-rule:nonzero;stroke:none"
         d="m 333.36495,846.30863 c 3.54526,1.28307 5.608,4.56083 4.60878,7.32012 -0.99988,2.75816 -4.68305,3.95372 -8.22831,2.67066 -3.5437,-1.28536 -5.60643,-4.56313 -4.60548,-7.32192 0.99815,-2.75866 4.68197,-3.9531 8.22501,-2.66886" />
      <path
         inkscape:transform-center-y="-204.39727"
         inkscape:transform-center-x="-343.78974"
         inkscape:connector-curvature="0"
         id="path62"
         style="fill:#a97c50;fill-opacity:1;fill-rule:nonzero;stroke:none"
         d="m 345.02115,845.28025 c 1.90581,0.69097 3.01276,2.45076 2.47622,3.93394 -0.53822,1.48277 -2.51684,2.12571 -4.42092,1.43525 -1.90299,-0.69109 -3.01336,-2.4518 -2.47682,-3.93498 0.53775,-1.4811 2.51744,-2.12467 4.42152,-1.43421" />
      <path
         inkscape:transform-center-y="-221.45292"
         inkscape:transform-center-x="-369.23935"
         inkscape:connector-curvature="0"
         id="path64"
         style="fill:#a97c50;fill-opacity:1;fill-rule:nonzero;stroke:none"
         d="m 372.35295,830.90031 c 0.006,2.02579 -1.26647,3.67141 -2.84201,3.67749 -1.57788,0.005 -2.86011,-1.63384 -2.86742,-3.659 -0.007,-2.02517 1.26587,-3.67245 2.84309,-3.67812 1.57571,-0.003 2.86119,1.63321 2.86634,3.65963" />
      <path
         inkscape:transform-center-y="-243.76332"
         inkscape:transform-center-x="-414.85415"
         inkscape:connector-curvature="0"
         id="path66"
         style="fill:#a97c50;fill-opacity:1;fill-rule:nonzero;stroke:none"
         d="m 417.96721,808.58903 c 0.007,2.02517 -1.2637,3.6712 -2.84309,3.67812 -1.57619,0.005 -2.85902,-1.63447 -2.86525,-3.66026 -0.008,-2.02453 1.2643,-3.67016 2.84266,-3.67637 1.57722,-0.006 2.86053,1.6321 2.86568,3.65851" />
      <path
         inkscape:transform-center-y="-251.23139"
         inkscape:transform-center-x="-406.99063"
         inkscape:connector-curvature="0"
         id="path68"
         style="fill:#a97c50;fill-opacity:1;fill-rule:nonzero;stroke:none"
         d="m 411.44561,801.70078 c -0.40707,2.97744 -2.61014,5.13411 -4.92789,4.81966 -2.31779,-0.31455 -3.86631,-2.98415 -3.46469,-5.95843 0.40707,-2.97744 2.61225,-5.13545 4.93005,-4.82091 2.31558,0.31571 3.86566,2.98302 3.46253,5.95968" />
      <path
         inkscape:transform-center-y="-259.63113"
         inkscape:transform-center-x="-432.74675"
         inkscape:connector-curvature="0"
         id="path70"
         style="fill:#a97c50;fill-opacity:1;fill-rule:nonzero;stroke:none"
         d="m 433.91785,787.78385 c 3.51109,0.64888 5.94527,3.3875 5.44327,6.11802 -0.50568,2.73414 -3.7561,4.42175 -7.26469,3.77719 -3.51217,-0.64826 -5.94911,-3.38667 -5.44608,-6.1179 0.50307,-2.73114 3.75706,-4.42508 7.2675,-3.77731" />
      <path
         inkscape:transform-center-y="-263.20889"
         inkscape:transform-center-x="-446.14715"
         inkscape:connector-curvature="0"
         id="path72"
         style="fill:#a97c50;fill-opacity:1;fill-rule:nonzero;stroke:none"
         d="m 446.98509,786.01447 c 2.22781,0.41119 3.77251,2.14918 3.45259,3.88257 -0.31818,1.73389 -2.38311,2.80483 -4.60858,2.39519 -2.22782,-0.41118 -3.77468,-2.14793 -3.45476,-3.88132 0.31878,-1.73285 2.38186,-2.80699 4.61075,-2.39644" />
      <path
         inkscape:transform-center-y="-296.65305"
         inkscape:transform-center-x="-452.55264"
         inkscape:connector-curvature="0"
         id="path74"
         style="fill:#8dc63f;fill-opacity:1;fill-rule:nonzero;stroke:none"
         d="m 452.86291,755.81015 0.0141,-0.008 -0.13096,-0.19424 0.11685,0.20239" />
      <path
         inkscape:transform-center-y="-178.37089"
         inkscape:transform-center-x="-207.14531"
         inkscape:connector-curvature="0"
         id="path76"
         style="fill:#8dc63f;fill-opacity:1;fill-rule:nonzero;stroke:none"
         d="m 442.0979,745.97211 c -4.4499,-9.49746 -18.22411,-19.04007 -18.22411,-19.04007 8.59105,8.91512 12.93127,22.39761 12.93127,22.39761 -4.67797,-3.33248 -10.93257,-11.18327 -10.93257,-11.18327 0.42444,7.29514 5.17819,16.91889 5.17819,16.91889 l -8.07749,-6.49814 3.25229,8.68064 c -6.53133,-3.56009 -16.42197,-24.00369 -16.42197,-24.00369 -0.19704,10.06872 6.71994,26.28678 6.71994,26.28678 -5.64398,-7.39066 -16.0088,-11.27055 -16.0088,-11.27055 8.95323,8.70745 11.89265,16.66367 11.89265,16.66367 l -7.79927,-5.75372 1.73134,9.55876 -7.41355,-6.27814 1.61236,11.73768 c -10.06195,-18.6228 -22.43707,-23.54464 -22.43707,-23.54464 10.74555,8.87933 12.99189,25.07761 12.99189,25.07761 -2.61864,-5.72811 -9.54999,-9.67356 -9.54999,-9.67356 3.21747,5.88032 2.05382,12.79481 2.05382,12.79481 -8.19621,-7.63625 -11.10252,-19.23013 -11.10252,-19.23013 -3.57697,9.90702 2.83847,24.00138 2.83847,24.00138 -6.77665,-8.7575 -11.52145,-25.32323 -11.52145,-25.32323 -3.06249,9.0081 5.57221,32.98134 5.57221,32.98134 l -8.0378,-8.02937 0.53045,8.74376 c -7.26238,-13.69631 -17.69875,-16.93013 -17.69875,-16.93013 11.02313,9.62263 10.0106,23.17887 10.0106,23.17887 -6.46595,-1.69686 -11.99201,-11.77827 -11.99201,-11.77827 -2.68098,7.8814 3.96865,17.0139 3.96865,17.0139 l -9.22895,-7.04 1.35062,11.28683 c -5.74245,-8.75121 -9.57937,-25.53945 -9.57937,-25.53945 -3.45607,8.3289 2.99868,30.24387 2.99868,30.24387 -7.05377,-12.21749 -18.54131,-17.952 -18.54131,-17.952 10.23146,11.2864 11.36377,19.68263 11.36377,19.68263 l -4.49502,-5.24811 -0.61491,6.68994 -5.74642,-7.24058 c -0.50916,4.2156 -0.35113,11.36433 -0.35113,11.36433 -7.44923,-7.16246 -10.45188,-25.03569 -10.45188,-25.03569 -5.38335,11.55327 5.46213,30.93318 5.46213,30.93318 -2.48185,-4.29869 -9.8159,-11.63163 -9.8159,-11.63163 2.82812,4.89845 2.69071,11.22044 2.69071,11.22044 -5.45922,-4.08814 -10.94547,-13.5906 -10.94547,-13.5906 -0.2194,7.96997 6.56807,18.53122 6.56807,18.53122 -8.58917,-8.31437 -19.95292,-27.99697 -19.95292,-27.99697 0.71411,6.64438 4.66405,15.77087 8.60047,23.49645 l -0.005,-0.009 0.59309,10.42226 c -4.44991,-9.49746 -18.22302,-19.0407 -18.22302,-19.0407 8.58996,8.91575 12.93127,22.39762 12.93127,22.39762 -4.67906,-3.33186 -10.93366,-11.18265 -10.93366,-11.18265 0.42443,7.29514 5.17711,16.91952 5.17711,16.91952 l -8.07642,-6.49877 3.25338,8.68002 c -6.53241,-3.55947 -9.99557,-24.00244 -9.99557,-24.00244 -0.17164,29.96018 2.26224,42.40425 -11.62296,25.92555 l 1.73134,9.55876 -7.41246,-6.27876 1.61126,11.7383 c -10.06194,-18.6228 -22.43706,-23.54464 -22.43706,-23.54464 10.74554,8.87933 12.99188,25.07761 12.99188,25.07761 -2.61755,-5.72873 -9.54998,-9.67356 -9.54998,-9.67356 3.21747,5.88032 2.0549,12.79419 2.0549,12.79419 -8.19621,-7.63625 -11.10252,-19.23013 -11.10252,-19.23013 -3.57805,9.90764 2.83847,24.00138 2.83847,24.00138 -6.77773,-8.75688 -11.52253,-25.32261 -11.52253,-25.32261 -3.0625,9.0081 5.57221,32.98134 5.57221,32.98134 l -8.0378,-8.02937 0.52936,8.74438 c -7.26129,-13.69693 -17.69658,-16.93137 -17.69658,-16.93137 11.02205,9.62325 10.00844,23.18012 10.00844,23.18012 -6.46487,-1.69749 -11.99093,-11.7789 -11.99093,-11.7789 -2.68098,7.8814 3.96865,17.0139 3.96865,17.0139 l -9.23003,-7.03938 1.3517,11.28621 c -5.74137,-8.75183 -9.58045,-25.53882 -9.58045,-25.53882 -3.45499,8.32827 2.99868,30.24386 2.99868,30.24386 -7.05377,-12.21749 -18.54132,-17.95199 -18.54132,-17.95199 10.23146,11.2864 11.36377,19.68262 11.36377,19.68262 l -4.49393,-5.24873 -0.61492,6.68994 -5.74641,-7.24058 c -0.50917,4.2156 -0.35113,11.36433 -0.35113,11.36433 -7.44815,-7.16308 -10.45188,-25.03569 -10.45188,-25.03569 -5.38227,11.55264 5.46213,30.93318 5.46213,30.93318 -2.48185,-4.29869 -9.81482,-11.63226 -9.81482,-11.63226 2.82812,4.89845 2.69071,11.22044 2.69071,11.22044 -5.4603,-4.08751 -10.94655,-13.58997 -10.94655,-13.58997 -0.21941,7.96997 6.56698,18.53184 6.56698,18.53184 -8.58808,-8.31499 -19.95183,-27.99759 -19.95183,-27.99759 0.74214,6.91542 4.99236,16.51952 9.08062,24.43311 l -0.006,-0.0108 0.11527,9.48714 c -4.4499,-9.49745 -18.22411,-19.04007 -18.22411,-19.04007 8.59105,8.91513 12.93127,22.39762 12.93127,22.39762 -4.67797,-3.33249 -10.93257,-11.18328 -10.93257,-11.18328 0.42335,7.29577 5.17711,16.91952 5.17711,16.91952 l -8.07642,-6.49876 3.2523,8.68064 c -6.53133,-3.5601 -16.423056,-24.00307 -16.423056,-24.00307 -0.197038,10.06872 6.722106,26.28553 6.722106,26.28553 -5.645063,-7.39003 -16.010967,-11.2693 -16.010967,-11.2693 8.953232,8.70745 11.893737,16.66304 11.893737,16.66304 l -7.799268,-5.75372 1.731337,9.55877 -7.412463,-6.27877 1.611269,11.7383 c -10.063028,-18.62217 -22.43815,-23.54401 -22.43815,-23.54401 10.744464,8.87996 12.99297,25.07698 12.99297,25.07698 -2.618633,-5.7281 -9.551067,-9.67293 -9.551067,-9.67293 3.216386,5.88094 2.054897,12.79419 2.054897,12.79419 -8.196208,-7.63625 -11.10252,-19.23013 -11.10252,-19.23013 -3.576962,9.90702 2.838469,24.00138 2.838469,24.00138 -6.77773,-8.75688 -11.521445,-25.32324 -11.521445,-25.32324 -3.063581,9.00873 5.571122,32.98198 5.571122,32.98198 l -8.037797,-8.02938 0.529363,8.74439 c -7.261296,-13.69694 -17.696475,-16.93144 -17.696475,-16.93144 11.02216,9.62318 10.008115,23.18031 10.008115,23.18031 -6.464871,-1.69749 -11.990609,-11.77909 -11.990609,-11.77909 -2.681088,7.88146 3.968863,17.01377 3.968863,17.01377 l -9.229593,-7.03962 1.351159,11.28652 c -5.741259,-8.7519 -9.579909,-25.53913 -9.579909,-25.53913 -3.455748,8.32871 2.998789,30.24379 2.998789,30.24379 C 12.583747,980.37728 1.0955552,974.64315 1.0955552,974.64315 11.326795,985.92968 12.459325,994.32578 12.459325,994.32578 l -4.4949156,-5.24816 -0.6139349,6.68937 -5.7462004,-7.24071 c -0.5092748,4.21567 -0.3515576,11.36458 -0.3515576,11.36458 -7.4481554,-7.16308 -10.4527505,-25.03519 -10.4527505,-25.03519 -5.381832,11.55239 5.4628832,30.93273 5.4628832,30.93273 -2.48185,-4.2987 -9.8145992,-11.63236 -9.8145992,-11.63236 2.82812,4.89844 2.690057,11.22086 2.690057,11.22086 -5.459103,-4.0883 -10.945353,-13.59072 -10.945353,-13.59072 -0.219735,7.97017 6.566653,18.53202 6.566653,18.53202 -8.587867,-8.3151 -19.951617,-27.99769 -19.951617,-27.99769 1.492667,13.91837 17.195102,38.72999 17.195102,38.72999 l 18.09351786,-9.1764 7.08750564,-4.2104 442.8162945,-256.81154 -8.39937,-14.54814 0.49686,9.66809"
         sodipodi:nodetypes="ccccccccccccccccccccccccccccccccccccccccccccccccccccccccccccccccccccccccccccccccccccccccccccccccccccccccccccccccccccccccccccccccccccccccccccccccc" />
    </g>
  </g>
</svg>
