<?xml version="1.0" encoding="UTF-8" standalone="no"?>
<!-- Created with Inkscape (http://www.inkscape.org/) -->

<svg
   xmlns:dc="http://purl.org/dc/elements/1.1/"
   xmlns:cc="http://creativecommons.org/ns#"
   xmlns:rdf="http://www.w3.org/1999/02/22-rdf-syntax-ns#"
   xmlns:svg="http://www.w3.org/2000/svg"
   xmlns="http://www.w3.org/2000/svg"
   xmlns:sodipodi="http://sodipodi.sourceforge.net/DTD/sodipodi-0.dtd"
   xmlns:inkscape="http://www.inkscape.org/namespaces/inkscape"
   width="128"
   height="128"
   viewBox="0 0 128 128"
   id="svg2"
   version="1.1"
   inkscape:version="0.91 r13725"
   sodipodi:docname="k2.svg"
   inkscape:export-filename="/home/hsn6/mialudo/k.png"
   inkscape:export-xdpi="90"
   inkscape:export-ydpi="90">
  <defs
     id="defs4" />
  <sodipodi:namedview
     id="base"
     pagecolor="#ffffff"
     bordercolor="#666666"
     borderopacity="1.0"
     inkscape:pageopacity="0.0"
     inkscape:pageshadow="2"
     inkscape:zoom="1.979899"
     inkscape:cx="51.264273"
     inkscape:cy="68.385484"
     inkscape:document-units="px"
     inkscape:current-layer="layer1"
     showgrid="false"
     units="px"
     inkscape:window-width="1024"
     inkscape:window-height="744"
     inkscape:window-x="0"
     inkscape:window-y="24"
     inkscape:window-maximized="1" />
  <metadata
     id="metadata7">
    <rdf:RDF>
      <cc:Work
         rdf:about="">
        <dc:format>image/svg+xml</dc:format>
        <dc:type
           rdf:resource="http://purl.org/dc/dcmitype/StillImage" />
        <dc:title></dc:title>
      </cc:Work>
    </rdf:RDF>
  </metadata>
  <g
     inkscape:label="Tavolo 1"
     inkscape:groupmode="layer"
     id="layer1"
     transform="translate(0,-924.36216)">
    <rect
       style="color:#000000;clip-rule:nonzero;display:inline;overflow:visible;visibility:visible;opacity:1;isolation:auto;mix-blend-mode:normal;color-interpolation:sRGB;color-interpolation-filters:linearRGB;solid-color:#000000;solid-opacity:1;fill:#000000;fill-opacity:1;fill-rule:nonzero;stroke:#6699ff;stroke-width:3.86013198;stroke-linecap:butt;stroke-linejoin:miter;stroke-miterlimit:4;stroke-dasharray:none;stroke-dashoffset:0;stroke-opacity:1;color-rendering:auto;image-rendering:auto;shape-rendering:auto;text-rendering:auto;enable-background:accumulate"
       id="rect4781"
       width="124.13987"
       height="124.13987"
       x="1.930066"
       y="926.29224" />
    <text
       xml:space="preserve"
       style="font-style:normal;font-variant:normal;font-weight:normal;font-stretch:normal;font-size:30px;line-height:125%;font-family:Sawasdee;-inkscape-font-specification:'Sawasdee, Normal';text-align:start;letter-spacing:0px;word-spacing:0px;writing-mode:lr-tb;text-anchor:start;fill:#000000;fill-opacity:1;stroke:none;stroke-width:1px;stroke-linecap:butt;stroke-linejoin:miter;stroke-opacity:1"
       x="52.142857"
       y="978.07648"
       id="text4139"
       sodipodi:linespacing="125%"><tspan
         sodipodi:role="line"
         id="tspan4141"
         x="52.142857"
         y="978.07648" /></text>
    <g
       style="font-style:normal;font-variant:normal;font-weight:normal;font-stretch:normal;font-size:119.995224px;line-height:125%;font-family:IranNastaliq-Web;-inkscape-font-specification:IranNastaliq-Web;text-align:start;letter-spacing:0px;word-spacing:0px;writing-mode:lr-tb;text-anchor:start;fill:#6699ff;fill-opacity:1;stroke:none;stroke-width:1px;stroke-linecap:butt;stroke-linejoin:miter;stroke-opacity:1"
       id="text4143"
       transform="matrix(0.71080487,0,0,0.71080487,24.644519,286.08568)">
      <path
         d="m 9.3593179,984.3588 c 0.225913,8.1331 6.1562991,18.3559 17.7911431,30.6686 3.275831,3.2758 6.269262,4.9702 8.980294,5.0832 1.016636,0 4.405425,-2.4851 10.16637,-7.4554 5.760941,-4.9702 11.070044,-8.9803 15.92731,-12.0302 0.564799,-0.9038 0.847197,-1.525 0.847197,-1.8638 0,-0.339 -0.282392,-0.9602 -0.847197,-1.8639 L 36.469632,957.24848 c -0.790716,-0.90369 -1.524953,-1.35552 -2.202712,-1.35552 -0.677756,0 -3.162869,1.35552 -7.455336,4.06654 -9.262693,5.76094 -14.967156,12.99039 -17.1133901,21.68827 -0.225914,1.1296 -0.338876,2.03326 -0.338876,2.71103 z"
         style="font-style:normal;font-variant:normal;font-weight:normal;font-stretch:normal;font-family:IranNastaliq-Web;-inkscape-font-specification:IranNastaliq-Web;fill:#6699ff"
         id="path4152"
         inkscape:connector-curvature="0"
         sodipodi:nodetypes="cccscsccsccc" />
      <path
         sodipodi:nodetypes="cccscsccsccc"
         inkscape:connector-curvature="0"
         id="path4173"
         style="font-style:normal;font-variant:normal;font-weight:normal;font-stretch:normal;font-family:IranNastaliq-Web;-inkscape-font-specification:IranNastaliq-Web;fill:#6699ff"
         d="m 101.37566,991.64476 c -0.22591,-8.1331 -6.156304,-18.3559 -17.791152,-30.6686 -3.275832,-3.2758 -6.269267,-4.9702 -8.980299,-5.0832 -1.016636,0 -4.405425,2.4851 -10.16637,7.4554 -5.760941,4.9702 -11.070044,8.9803 -15.927315,12.0302 -0.56479,0.9038 -0.84719,1.525 -0.84719,1.8638 0,0.339 0.28239,0.9602 0.84719,1.8639 l 25.754808,39.64884 c 0.790716,0.9037 1.524953,1.3555 2.202712,1.3555 0.677756,0 3.162869,-1.3555 7.455334,-4.0665 9.262706,-5.761 14.96717,-12.9904 17.113402,-21.68831 0.22592,-1.1296 0.33888,-2.03326 0.33888,-2.71103 z" />
    </g>
    <text
       xml:space="preserve"
       style="font-style:normal;font-variant:normal;font-weight:normal;font-stretch:normal;font-size:30px;line-height:125%;font-family:Sawasdee;-inkscape-font-specification:'Sawasdee, Normal';text-align:start;letter-spacing:0px;word-spacing:0px;writing-mode:lr-tb;text-anchor:start;fill:#000000;fill-opacity:1;stroke:none;stroke-width:1px;stroke-linecap:butt;stroke-linejoin:miter;stroke-opacity:1"
       x="87.14286"
       y="896.4693"
       id="text4147"
       sodipodi:linespacing="125%"><tspan
         sodipodi:role="line"
         id="tspan4149"
         x="87.14286"
         y="896.4693" /></text>
  </g>
</svg>
