<?xml version="1.0" encoding="UTF-8" standalone="no"?>
<!-- Created with Inkscape (http://www.inkscape.org/) -->

<svg
   xmlns:dc="http://purl.org/dc/elements/1.1/"
   xmlns:cc="http://creativecommons.org/ns#"
   xmlns:rdf="http://www.w3.org/1999/02/22-rdf-syntax-ns#"
   xmlns:svg="http://www.w3.org/2000/svg"
   xmlns="http://www.w3.org/2000/svg"
   xmlns:sodipodi="http://sodipodi.sourceforge.net/DTD/sodipodi-0.dtd"
   xmlns:inkscape="http://www.inkscape.org/namespaces/inkscape"
   width="1000"
   height="512"
   viewBox="0 0 1000 512"
   id="svg4420"
   version="1.1"
   inkscape:version="0.91 r13725"
   sodipodi:docname="konstruajxo2.svg"
   inkscape:export-filename="/home/hsn6/mialudo/Fonoj/konstruajxo2.png"
   inkscape:export-xdpi="90"
   inkscape:export-ydpi="90">
  <defs
     id="defs4422" />
  <sodipodi:namedview
     id="base"
     pagecolor="#ffffff"
     bordercolor="#666666"
     borderopacity="1.0"
     inkscape:pageopacity="0.0"
     inkscape:pageshadow="2"
     inkscape:zoom="0.35"
     inkscape:cx="452.19892"
     inkscape:cy="-180.53948"
     inkscape:document-units="px"
     inkscape:current-layer="layer1"
     showgrid="false"
     units="px"
     inkscape:window-width="1024"
     inkscape:window-height="744"
     inkscape:window-x="0"
     inkscape:window-y="24"
     inkscape:window-maximized="1" />
  <metadata
     id="metadata4425">
    <rdf:RDF>
      <cc:Work
         rdf:about="">
        <dc:format>image/svg+xml</dc:format>
        <dc:type
           rdf:resource="http://purl.org/dc/dcmitype/StillImage" />
        <dc:title></dc:title>
      </cc:Work>
    </rdf:RDF>
  </metadata>
  <g
     inkscape:label="Tavolo 1"
     inkscape:groupmode="layer"
     id="layer1"
     transform="translate(0,-540.36216)">
    <g
       id="g268"
       transform="matrix(1.25,0,0,-1.25,917.675,940.20841)">
      <path
         d="m 0,0 0,75.645 -18.409,0 0,64.426 -46.031,0 0,-140.071 -20.579,0 0,75.645 -36.284,0 0,32.213 -23.013,0 0,-9.204 -9.747,0 0,-4.026 -11.509,0 0,-6.903 -6.498,0 0,-87.725 -7.313,0 0,107.859 -33.978,0 0,-107.859 -5.007,0 0,57.813 -43.731,0 0,-57.813 -2.301,0 0,151.576 -43.729,0 0,-151.576 -12.05,0 0,112.749 -43.729,26.461 0,-73.919 -12.051,0 0,16.106 -28.563,0 0,-81.397 -57.879,0 0,125.979 -45.555,0 0,-125.979 -49.215,0 0,171.136 -45.555,0 0,-92.038 -14.587,0 0,21.859 -45.554,0 0,-43.144 -14.623,0 0,-57.813 -12.932,0 0,107.859 -43.718,0 0,-197.582 800,0 L 65.86,0 0,0 Z"
         style="fill:#b2b2b2;fill-opacity:1;fill-rule:nonzero;stroke:none"
         id="path270"
         inkscape:connector-curvature="0" />
    </g>
  </g>
</svg>
