<?xml version="1.0" encoding="UTF-8" standalone="no"?>
<!-- Created with Inkscape (http://www.inkscape.org/) -->

<svg
   xmlns:dc="http://purl.org/dc/elements/1.1/"
   xmlns:cc="http://creativecommons.org/ns#"
   xmlns:rdf="http://www.w3.org/1999/02/22-rdf-syntax-ns#"
   xmlns:svg="http://www.w3.org/2000/svg"
   xmlns="http://www.w3.org/2000/svg"
   xmlns:sodipodi="http://sodipodi.sourceforge.net/DTD/sodipodi-0.dtd"
   xmlns:inkscape="http://www.inkscape.org/namespaces/inkscape"
   width="1000"
   height="512"
   viewBox="0 0 1000 512"
   id="svg4420"
   version="1.1"
   inkscape:version="0.91 r13725"
   sodipodi:docname="konstruajxo1.svg"
   inkscape:export-filename="/home/hsn6/mialudo/Fonoj/konstruajxo0.png"
   inkscape:export-xdpi="90"
   inkscape:export-ydpi="90">
  <defs
     id="defs4422" />
  <sodipodi:namedview
     id="base"
     pagecolor="#ffffff"
     bordercolor="#666666"
     borderopacity="1.0"
     inkscape:pageopacity="0.0"
     inkscape:pageshadow="2"
     inkscape:zoom="0.35"
     inkscape:cx="452.19892"
     inkscape:cy="-180.53948"
     inkscape:document-units="px"
     inkscape:current-layer="layer1"
     showgrid="false"
     units="px"
     inkscape:window-width="1024"
     inkscape:window-height="744"
     inkscape:window-x="0"
     inkscape:window-y="24"
     inkscape:window-maximized="1" />
  <metadata
     id="metadata4425">
    <rdf:RDF>
      <cc:Work
         rdf:about="">
        <dc:format>image/svg+xml</dc:format>
        <dc:type
           rdf:resource="http://purl.org/dc/dcmitype/StillImage" />
        <dc:title></dc:title>
      </cc:Work>
    </rdf:RDF>
  </metadata>
  <g
     inkscape:label="Tavolo 1"
     inkscape:groupmode="layer"
     id="layer1"
     transform="translate(0,-540.36216)">
    <g
       id="g272"
       transform="matrix(1.25,0,0,-1.25,971.11125,848.42091)">
      <path
         d="m 0,0 0,-105.153 -4.313,0 0,71.129 -23.64,0 0,-71.129 -38.093,0 0,112.53 -28.369,0 0,-112.53 -5.992,0 0,135.598 c 0,7.59 -5.893,13.78 -13.321,14.231 l -0.864,36.032 -0.863,-36.032 c -7.431,-0.451 -13.321,-6.641 -13.321,-14.231 l 0,-135.598 -36.923,0 0,101.312 -28.369,0 0,-101.312 -23.172,0 0,79.628 -32.383,0 0,-79.628 -18.286,0 0,138.529 -12.255,0 -1.038,43.332 -1.038,-43.332 -16.304,0 0,-27.859 -20.192,0 -10.005,17.437 -10.004,-17.437 -2.022,0 0,16.429 -28.537,0 0,-127.099 -5.532,0 0,57.063 -13.104,0 0,17.29 -21.839,0 0,12.015 -23.297,0 0,-19.928 -10.483,0 0,99.049 -7.538,0 c -2.352,6.014 -7.948,10.37 -14.626,10.892 l -1.119,46.71 -1.119,-46.688 c -6.873,-0.358 -12.665,-4.769 -15.068,-10.914 l -5.956,0 0,-165.489 -5.532,0 0,101.898 -27.083,0 0,-101.898 -8.734,0 0,101.898 -19.124,0 -18.766,32.709 -18.765,-32.709 -18.475,0 0,-101.898 -4.366,0 0,52.138 -29.703,0 0,-52.138 -6.406,0 0,41.239 -14.852,0 0,-41.239 -13.396,0 0,70.014 -22.42,0 0,-70.014 -1.457,0 0,45.986 -14.852,0 0,6.153 -14.849,0 0,-52.139 -4.369,0 0,78.455 -20.966,0 0,23.443 -15.129,0 -1.21,50.6 -1.214,-50.6 -6.236,0 0,-159.898 800,0 L 23.111,0 0,0 Z"
         style="fill:#808080;fill-opacity:1;fill-rule:nonzero;stroke:none"
         id="path274"
         inkscape:connector-curvature="0" />
    </g>
  </g>
</svg>
