<?xml version="1.0" encoding="UTF-8" standalone="no"?>
<!-- Created with Inkscape (http://www.inkscape.org/) -->

<svg
   xmlns:dc="http://purl.org/dc/elements/1.1/"
   xmlns:cc="http://creativecommons.org/ns#"
   xmlns:rdf="http://www.w3.org/1999/02/22-rdf-syntax-ns#"
   xmlns:svg="http://www.w3.org/2000/svg"
   xmlns="http://www.w3.org/2000/svg"
   xmlns:sodipodi="http://sodipodi.sourceforge.net/DTD/sodipodi-0.dtd"
   xmlns:inkscape="http://www.inkscape.org/namespaces/inkscape"
   width="128mm"
   height="128mm"
   viewBox="0 0 453.54331 453.54331"
   id="svg5742"
   version="1.1"
   inkscape:version="0.91 r13725"
   sodipodi:docname="malbonaj_okuloj_0.svg"
   inkscape:export-filename="/home/hsn6/mialudo/Malamikoj/malbonaj_okuloj_0.png"
   inkscape:export-xdpi="90"
   inkscape:export-ydpi="90">
  <defs
     id="defs5744" />
  <sodipodi:namedview
     id="base"
     pagecolor="#ffffff"
     bordercolor="#666666"
     borderopacity="1.0"
     inkscape:pageopacity="0.0"
     inkscape:pageshadow="2"
     inkscape:zoom="0.49497475"
     inkscape:cx="164.11924"
     inkscape:cy="327.82984"
     inkscape:document-units="px"
     inkscape:current-layer="layer1"
     showgrid="false"
     inkscape:window-width="1024"
     inkscape:window-height="744"
     inkscape:window-x="0"
     inkscape:window-y="24"
     inkscape:window-maximized="1" />
  <metadata
     id="metadata5747">
    <rdf:RDF>
      <cc:Work
         rdf:about="">
        <dc:format>image/svg+xml</dc:format>
        <dc:type
           rdf:resource="http://purl.org/dc/dcmitype/StillImage" />
        <dc:title></dc:title>
      </cc:Work>
    </rdf:RDF>
  </metadata>
  <g
     inkscape:label="Tavolo 1"
     inkscape:groupmode="layer"
     id="layer1"
     transform="translate(0,-598.8189)">
    <g
       id="g6326"
       transform="matrix(0.85445386,0,0,0.85445386,-35.211714,170.47577)">
      <path
         inkscape:connector-curvature="0"
         id="path556"
         style="fill:#000000;fill-opacity:1;fill-rule:nonzero;stroke:none"
         d="m 254.95394,793.95447 -17.22917,-8.30904 -7.11176,-3.43145 -4.00383,-1.93002 c -0.43135,0.94289 -0.89312,1.86918 -1.35488,2.80101 -0.54472,1.08944 -1.08391,2.18165 -1.66458,3.24896 -0.65532,1.20281 -1.36041,2.36691 -2.06551,3.53653 -1.83324,3.04988 -3.8075,5.98638 -5.9449,8.76252 -4.47942,5.81495 -9.59204,10.93033 -15.16643,15.11665 -3.77708,2.83696 -7.7422,5.28682 -11.8981,7.15048 -28.25904,12.66403 -53.37973,-4.08401 -56.10886,-37.4142 -0.19068,-2.31713 -0.24056,-4.65085 -0.2128,-6.99563 0.0199,-1.24429 0.094,-2.49133 0.17144,-3.74115 l 0.0133,-0.32904 c 0.24056,-3.65266 0.74104,-7.30256 1.46549,-10.94139 0.53089,-2.67659 1.17792,-5.34212 1.95491,-7.97724 1.45177,-4.91906 3.29331,-9.73582 5.51366,-14.35902 L 46.693871,693.50215 c 0.431352,1.7337 0.895884,3.38722 1.343826,5.08221 0.890353,3.37615 1.811122,6.67488 2.762307,9.89896 1.686695,5.72093 3.453576,11.23449 5.317235,16.49365 0.627671,1.78071 1.274698,3.51994 1.92449,5.24811 0.782516,2.0821 1.581622,4.11996 2.394553,6.13017 4.692328,11.63819 9.827068,22.06251 15.335093,31.37528 3.370623,5.69881 6.865675,11.01605 10.490685,15.91022 23.14366,31.24532 51.11513,46.61913 79.01195,52.81289 3.16877,0.70233 6.33202,1.28576 9.48973,1.76135 6.61682,0.99819 13.20046,1.52909 19.68179,1.65905 4.90247,0.0995 9.74688,-0.0111 14.50004,-0.31799 10.8142,-0.69403 21.16939,-2.34201 30.74484,-4.47665 7.67031,-1.70882 14.82908,-3.72179 21.31594,-5.82324 5.61863,-1.81942 10.73678,-3.69691 15.23002,-5.48591 12.93501,-5.15133 20.74911,-9.54226 20.74911,-9.54226 l -42.03187,-20.27352" />
      <path
         inkscape:connector-curvature="0"
         id="path584"
         style="fill:#ff6600;fill-opacity:1;fill-rule:nonzero;stroke:none"
         d="m 217.69735,775.98427 -9.50079,-4.58173 -1.80559,-0.871 -4.60661,-2.22035 -15.1996,-7.33021 -45.27254,-21.83854 c -2.22035,4.6232 -4.06189,9.43996 -5.51355,14.35902 -0.77699,2.63512 -1.42401,5.30065 -1.95491,7.97724 -0.72445,3.63883 -1.22493,7.28873 -1.46549,10.94139 l -0.0133,0.32904 c -0.0774,1.24982 -0.15197,2.49686 -0.17143,3.74115 -0.0276,2.34478 0.0221,4.6785 0.2128,6.99563 2.72912,33.33019 27.84981,50.07823 56.10885,37.4142 4.1559,-1.86366 8.12102,-4.31352 11.89811,-7.15048 5.57438,-4.18632 10.687,-9.3017 15.16642,-15.11665 2.1374,-2.77614 4.11166,-5.71264 5.94491,-8.76252 0.70509,-1.16962 1.41018,-2.33372 2.06551,-3.53653 0.58066,-1.06731 1.11985,-2.15952 1.66457,-3.24896 0.46177,-0.93183 0.92353,-1.85812 1.35488,-2.80101 l -8.91193,-4.29969" />
    </g>
    <g
       transform="matrix(-0.85445386,0,0,0.85445386,488.75502,170.47577)"
       id="g6330">
      <path
         d="m 254.95394,793.95447 -17.22917,-8.30904 -7.11176,-3.43145 -4.00383,-1.93002 c -0.43135,0.94289 -0.89312,1.86918 -1.35488,2.80101 -0.54472,1.08944 -1.08391,2.18165 -1.66458,3.24896 -0.65532,1.20281 -1.36041,2.36691 -2.06551,3.53653 -1.83324,3.04988 -3.8075,5.98638 -5.9449,8.76252 -4.47942,5.81495 -9.59204,10.93033 -15.16643,15.11665 -3.77708,2.83696 -7.7422,5.28682 -11.8981,7.15048 -28.25904,12.66403 -53.37973,-4.08401 -56.10886,-37.4142 -0.19068,-2.31713 -0.24056,-4.65085 -0.2128,-6.99563 0.0199,-1.24429 0.094,-2.49133 0.17144,-3.74115 l 0.0133,-0.32904 c 0.24056,-3.65266 0.74104,-7.30256 1.46549,-10.94139 0.53089,-2.67659 1.17792,-5.34212 1.95491,-7.97724 1.45177,-4.91906 3.29331,-9.73582 5.51366,-14.35902 L 46.693871,693.50215 c 0.431352,1.7337 0.895884,3.38722 1.343826,5.08221 0.890353,3.37615 1.811122,6.67488 2.762307,9.89896 1.686695,5.72093 3.453576,11.23449 5.317235,16.49365 0.627671,1.78071 1.274698,3.51994 1.92449,5.24811 0.782516,2.0821 1.581622,4.11996 2.394553,6.13017 4.692328,11.63819 9.827068,22.06251 15.335093,31.37528 3.370623,5.69881 6.865675,11.01605 10.490685,15.91022 23.14366,31.24532 51.11513,46.61913 79.01195,52.81289 3.16877,0.70233 6.33202,1.28576 9.48973,1.76135 6.61682,0.99819 13.20046,1.52909 19.68179,1.65905 4.90247,0.0995 9.74688,-0.0111 14.50004,-0.31799 10.8142,-0.69403 21.16939,-2.34201 30.74484,-4.47665 7.67031,-1.70882 14.82908,-3.72179 21.31594,-5.82324 5.61863,-1.81942 10.73678,-3.69691 15.23002,-5.48591 12.93501,-5.15133 20.74911,-9.54226 20.74911,-9.54226 l -42.03187,-20.27352"
         style="fill:#000000;fill-opacity:1;fill-rule:nonzero;stroke:none"
         id="path6332"
         inkscape:connector-curvature="0" />
      <path
         d="m 217.69735,775.98427 -9.50079,-4.58173 -1.80559,-0.871 -4.60661,-2.22035 -15.1996,-7.33021 -45.27254,-21.83854 c -2.22035,4.6232 -4.06189,9.43996 -5.51355,14.35902 -0.77699,2.63512 -1.42401,5.30065 -1.95491,7.97724 -0.72445,3.63883 -1.22493,7.28873 -1.46549,10.94139 l -0.0133,0.32904 c -0.0774,1.24982 -0.15197,2.49686 -0.17143,3.74115 -0.0276,2.34478 0.0221,4.6785 0.2128,6.99563 2.72912,33.33019 27.84981,50.07823 56.10885,37.4142 4.1559,-1.86366 8.12102,-4.31352 11.89811,-7.15048 5.57438,-4.18632 10.687,-9.3017 15.16642,-15.11665 2.1374,-2.77614 4.11166,-5.71264 5.94491,-8.76252 0.70509,-1.16962 1.41018,-2.33372 2.06551,-3.53653 0.58066,-1.06731 1.11985,-2.15952 1.66457,-3.24896 0.46177,-0.93183 0.92353,-1.85812 1.35488,-2.80101 l -8.91193,-4.29969"
         style="fill:#ff6600;fill-opacity:1;fill-rule:nonzero;stroke:none"
         id="path6334"
         inkscape:connector-curvature="0" />
    </g>
  </g>
</svg>
